<svg xmlns="http://www.w3.org/2000/svg" width="100%" height="191" viewBox="0 0 1920 191" preserveAspectRatio="none">
                <path d="M121.402 84.7936C194.687 110.164 275.587 122.531 368.471 122.531C371.424 122.531 374.404 122.518 377.379 122.494C452.531 121.862 535.388 113.287 638.121 95.5046C678.552 88.5069 719.745 80.6328 759.582 73.0215C892.285 47.66 1028.57 21.6112 1167.15 21.6112C1201.8 21.6112 1236.63 23.2442 1271.55 26.9206C1385.34 38.9095 1491.09 73.6258 1593.37 107.198C1622.38 116.724 1652.4 126.577 1682.1 135.747C1783.45 167.032 1882.41 185.534 1976.23 190.742C1977.88 190.834 1979.52 190.917 1981.16 191V188.5C1869.31 182.803 1765.23 158.922 1682.8 133.478C1653.12 124.312 1623.12 114.463 1594.1 104.943C1491.71 71.3332 1385.84 36.5754 1271.8 24.5589C1193.37 16.2926 1108.67 17.6396 1012.87 28.6735C927.587 38.4943 841.949 54.8607 759.13 70.692C719.302 78.3033 678.123 86.1728 637.71 93.1705C535.106 110.93 452.375 119.496 377.351 120.128C280.993 120.935 197.528 108.647 122.172 82.5563C94.1539 72.8555 65.9094 61.7154 38.5966 50.9444C-6.64166 33.088 -53.4299 14.6366 -101.634 1.67447C-103.761 1.09786 -105.883 0.544317 -108 0V2.50939C-57.5538 15.573 -9.48779 34.5226 37.734 53.1493C65.0698 63.9296 93.3374 75.0789 121.402 84.7982V84.7936Z" fill="url(#paint0_linear_1294_5151)" id="wavePath"></path>
                <defs>
                    <linearGradient id="paint0_linear_1294_5151" x1="205.869" y1="28.6953" x2="230.348" y2="296.513" gradientUnits="userSpaceOnUse">
                        <stop stop-color="#0E8AFD"></stop>
                        <stop offset="1" stop-color="#23FFBD"></stop>
                    </linearGradient>
                </defs>
            </svg>