<svg width="180" height="20" viewBox="0 0 180 20" fill="none" xmlns="http://www.w3.org/2000/svg">
<path d="M6.34974 4.47921C7.17476 3.96511 8.11028 3.70422 9.17103 3.70422C10.1581 3.70422 11.0273 3.92674 11.7861 4.37946C12.5374 4.83217 13.1267 5.5074 13.5392 6.41283H17.7233C17.1193 4.50223 16.0511 2.9983 14.5263 1.91639C13.0089 0.842154 11.2262 0.297363 9.20049 0.297363C7.46942 0.297363 5.9004 0.711711 4.50817 1.53273C3.10857 2.35376 2.011 3.50472 1.20807 4.97028C0.405146 6.44352 0 8.10859 0 9.96548C0 11.8224 0.405146 13.4874 1.20807 14.953C2.011 16.4186 3.11594 17.5619 4.50817 18.3829C5.9004 19.2039 7.46942 19.6182 9.20049 19.6182C11.2483 19.6182 13.031 19.0811 14.5484 18.0069C16.0659 16.9327 17.1266 15.4287 17.738 13.4951H13.554C13.1341 14.4005 12.5522 15.0834 11.8008 15.5438C11.0494 16.0042 10.1728 16.2344 9.18576 16.2344C8.12502 16.2344 7.1895 15.9735 6.36447 15.4594C5.53945 14.9453 4.89858 14.2164 4.44187 13.2649C3.98516 12.3134 3.74944 11.2162 3.74944 9.97315C3.74944 8.73011 3.9778 7.60983 4.44187 6.66604C4.89858 5.72992 5.53945 5.00098 6.36447 4.48688L6.34974 4.47921Z" fill="black"/>
<path d="M30.7572 5.16226C29.6302 4.51772 28.3705 4.20312 26.9857 4.20312C25.6008 4.20312 24.3412 4.5254 23.2141 5.16226C22.0871 5.8068 21.1958 6.71223 20.5475 7.88622C19.8993 9.0602 19.5752 10.4183 19.5752 11.953C19.5752 13.4876 19.8919 14.8457 20.5254 16.0197C21.1589 17.1937 22.0282 18.0991 23.1405 18.7437C24.2528 19.3882 25.4977 19.7028 26.8826 19.7028C28.2674 19.7028 29.5565 19.3805 30.6909 18.7437C31.8253 18.0991 32.7314 17.1937 33.3944 16.0197C34.0647 14.8457 34.3962 13.4953 34.3962 11.953C34.3962 10.4107 34.0721 9.0602 33.4238 7.88622C32.7756 6.71223 31.8843 5.8068 30.7572 5.16226ZM30.1311 14.3853C29.7849 15.0529 29.3208 15.5516 28.7389 15.8893C28.1569 16.2269 27.5382 16.388 26.8826 16.388C25.8439 16.388 24.9821 16.0044 24.297 15.237C23.6119 14.4697 23.2731 13.3725 23.2731 11.9453C23.2731 10.5181 23.6267 9.42084 24.3265 8.65353C25.0262 7.88622 25.9028 7.50256 26.9415 7.50256C27.9801 7.50256 28.8641 7.88622 29.5786 8.65353C30.3005 9.42084 30.6615 10.5181 30.6615 11.9453C30.6615 12.9044 30.4847 13.7178 30.1385 14.3853H30.1311Z" fill="black"/>
<path d="M44.2169 4.22559C43.3183 4.22559 42.4859 4.40974 41.7345 4.77805C40.9831 5.14636 40.357 5.66046 39.8782 6.31267V4.44043H36.2393V19.449H39.8782V11.1621C39.8782 9.97274 40.1655 9.05197 40.7474 8.4151C41.3294 7.77056 42.1249 7.45596 43.1267 7.45596C44.1286 7.45596 44.8946 7.77823 45.4692 8.4151C46.0438 9.05964 46.3237 9.97274 46.3237 11.1621V19.449H49.9626V10.648C49.9626 8.62227 49.4323 7.04929 48.3789 5.92134C47.3182 4.7934 45.9333 4.22559 44.2169 4.22559Z" fill="black"/>
<path d="M59.7921 4.22607C58.8935 4.22607 58.0611 4.41023 57.3097 4.77854C56.5583 5.14685 55.9322 5.66095 55.4534 6.31316V4.44092H51.8145V19.4495H55.4534V11.1626C55.4534 9.97323 55.7407 9.05246 56.3226 8.41559C56.9046 7.77105 57.7001 7.45645 58.7019 7.45645C59.7037 7.45645 60.4698 7.77872 61.0444 8.41559C61.619 9.06013 61.9063 9.97323 61.9063 11.1626V19.4495H65.5452V10.6485C65.5452 8.62276 65.0148 7.04978 63.9615 5.92183C62.9007 4.79388 61.5159 4.22607 59.7995 4.22607H59.7921Z" fill="black"/>
<path d="M78.2909 5.11657C77.208 4.50273 75.9778 4.1958 74.6077 4.1958C73.2376 4.1958 71.9264 4.5104 70.8362 5.14727C69.746 5.77646 68.8915 6.68189 68.2874 7.85587C67.6834 9.02986 67.374 10.3957 67.374 11.9456C67.374 13.4956 67.6834 14.8384 68.2948 16.0124C68.9136 17.1864 69.7681 18.0918 70.873 18.7363C71.9706 19.3809 73.2155 19.6955 74.6077 19.6955C76.3241 19.6955 77.7752 19.2274 78.9538 18.299C80.1324 17.3705 80.928 16.1812 81.3479 14.7386H77.4216C76.8471 15.951 75.8895 16.5572 74.5341 16.5572C73.5985 16.5572 72.8103 16.2502 72.1695 15.6364C71.5286 15.0226 71.1603 14.1708 71.0793 13.0889H81.6131C81.6794 12.6516 81.7162 12.1682 81.7162 11.6234C81.7162 10.1578 81.4142 8.86105 80.8175 7.7331C80.2208 6.60516 79.3811 5.73042 78.2982 5.11657H78.2909ZM71.1014 10.5338C71.2413 9.52094 71.617 8.73061 72.2358 8.1628C72.8545 7.59499 73.6133 7.31108 74.512 7.31108C75.4622 7.31108 76.2725 7.60266 76.9281 8.19349C77.5837 8.78432 77.9225 9.5593 77.9446 10.5338H71.1014Z" fill="black"/>
<path d="M90.6548 7.42618C91.3841 7.42618 91.9955 7.61033 92.489 7.97864C92.9826 8.34695 93.3361 8.86105 93.5424 9.50559H97.4686C97.0708 7.82518 96.2827 6.52075 95.1114 5.59231C93.9402 4.66386 92.4596 4.1958 90.6769 4.1958C89.292 4.1958 88.0619 4.51807 86.9864 5.15494C85.9109 5.79948 85.0712 6.69723 84.4671 7.86354C83.8631 9.02986 83.5537 10.388 83.5537 11.938C83.5537 13.4879 83.8557 14.8537 84.4671 16.0124C85.0712 17.1787 85.9109 18.0841 86.9864 18.721C88.0619 19.3655 89.292 19.6801 90.6769 19.6801C92.4448 19.6801 93.9181 19.2044 95.0967 18.2453C96.2753 17.2861 97.0635 15.997 97.4613 14.3703H93.535C93.0857 15.7438 92.1207 16.4267 90.6474 16.4267C89.6088 16.4267 88.7838 16.0354 88.1797 15.2451C87.5757 14.4624 87.2663 13.3498 87.2663 11.9226C87.2663 10.4954 87.5683 9.3598 88.1797 8.57714C88.7838 7.79449 89.6088 7.39549 90.6474 7.39549L90.6548 7.42618Z" fill="black"/>
<path d="M102.972 0.512695H99.3037V14.7923C99.3037 17.9 100.836 19.4499 103.908 19.4499H106.199V16.2502H104.504C103.952 16.2502 103.554 16.1351 103.318 15.9126C103.083 15.6901 102.965 15.3218 102.965 14.8154V7.80215H106.191V4.44132H102.965V0.512695H102.972Z" fill="black"/>
<path d="M129.585 0.512695L126.351 15.1376L122.86 0.512695H118.801L115.103 15.222L111.899 0.512695H107.987L112.886 19.4576H117.158L120.731 5.96827L124.142 19.4576H128.436L133.519 0.512695H129.585Z" fill="black"/>
<path d="M157.55 15.9579L153.904 4.44824H150.007L155.311 19.4568H159.73L165.064 4.44824H161.189L157.55 15.9579Z" fill="black"/>
<path d="M179.993 11.6234C179.993 10.1578 179.691 8.86105 179.094 7.7331C178.498 6.60516 177.658 5.73042 176.575 5.11657C175.492 4.50273 174.262 4.1958 172.892 4.1958C171.522 4.1958 170.211 4.5104 169.12 5.14727C168.03 5.77646 167.176 6.68189 166.572 7.85587C165.968 9.02986 165.658 10.3957 165.658 11.9456C165.658 13.4956 165.968 14.8384 166.579 16.0124C167.198 17.1864 168.052 18.0918 169.157 18.7363C170.255 19.3809 171.5 19.6955 172.892 19.6955C174.608 19.6955 176.059 19.2274 177.238 18.299C178.417 17.3705 179.212 16.1812 179.632 14.7386H175.706C175.131 15.951 174.174 16.5572 172.818 16.5572C171.883 16.5572 171.095 16.2502 170.454 15.6364C169.813 15.0226 169.444 14.1708 169.363 13.0889H179.897C179.964 12.6516 180 12.1682 180 11.6234H179.993ZM169.378 10.5415C169.518 9.52861 169.894 8.73828 170.513 8.17047C171.131 7.60266 171.883 7.31875 172.789 7.31875C173.739 7.31875 174.549 7.61033 175.205 8.20116C175.861 8.79199 176.199 9.56697 176.221 10.5415H169.378Z" fill="black"/>
<path d="M144.433 6.58179C143.947 5.89888 143.299 5.3234 142.496 4.87836C141.693 4.42564 140.75 4.20312 139.675 4.20312C138.445 4.20312 137.332 4.51772 136.33 5.15459C135.336 5.78378 134.548 6.68921 133.966 7.8632C133.384 9.03718 133.097 10.38 133.097 11.8992C133.097 13.4185 133.384 14.792 133.966 15.9737C134.548 17.1553 135.336 18.0761 136.33 18.7206C137.325 19.3729 138.43 19.6951 139.645 19.6951C140.721 19.6951 141.671 19.4649 142.496 19.0045C143.321 18.5442 143.969 17.961 144.433 17.2551V19.4496H148.102V4.44866H144.433V6.58946V6.58179ZM143.91 14.3163C143.564 14.9762 143.093 15.4826 142.503 15.8356C141.914 16.1885 141.281 16.365 140.603 16.365C139.925 16.365 139.321 16.1885 138.747 15.8202C138.165 15.4596 137.701 14.9378 137.34 14.2626C136.986 13.5873 136.809 12.797 136.809 11.8916C136.809 10.9861 136.986 10.2112 137.34 9.55128C137.693 8.89139 138.157 8.39264 138.732 8.04735C139.306 7.70206 139.925 7.53325 140.603 7.53325C141.281 7.53325 141.914 7.70973 142.503 8.0627C143.093 8.41566 143.564 8.92208 143.91 9.58197C144.257 10.2419 144.433 11.0322 144.433 11.953C144.433 12.8737 144.257 13.6641 143.91 14.3239V14.3163Z" fill="black"/>
</svg>
