<svg width="100" height="23" viewBox="0 0 100 23" fill="none" xmlns="http://www.w3.org/2000/svg">
<path d="M8.75805 22.6226V21.7204C8.60605 21.892 7.69406 22.8236 5.87499 22.9021C4.41384 22.9658 2.83993 22.7501 1.42782 21.2252C0.971823 20.7349 0.535442 20.0484 0.319702 19.2835C0.103963 18.5187 -0.00390625 17.6655 -0.00390625 16.729C-0.00390625 15.6013 0.167704 14.6304 0.506023 13.8067C0.844341 12.983 1.31504 12.3014 1.91323 11.7572C2.51632 11.2129 3.22728 10.8109 4.05101 10.551C4.87474 10.2911 5.77202 10.1588 6.74285 10.1588C7.06645 10.1588 7.39497 10.1784 7.72838 10.2176C8.05689 10.2568 8.35108 10.3108 8.61095 10.3745V5.08398H11.7539V22.6226H8.76295H8.75805ZM3.29592 16.5966C3.29592 17.7587 3.81075 20.3819 5.87499 20.3819C7.80193 20.3819 8.61095 18.8913 8.61095 16.0769C8.61095 12.7819 7.54206 12.63 6.13976 12.63C3.55579 12.63 3.29102 15.9641 3.29102 16.5966H3.29592Z" fill="black"/>
<path d="M21.3743 22.6223V21.926C20.9575 22.431 19.722 22.9017 18.2853 22.9017C16.7457 22.9017 15.0639 22.7007 14.1127 21.8525C13.7548 21.5338 13.5096 21.1268 13.3331 20.6561C13.1566 20.1903 13.0684 19.6755 13.0684 19.1116C13.0684 17.5475 13.49 14.3801 19.4915 14.3801H21.2027V14.0957C21.1978 13.5318 20.8154 13.0513 20.6045 12.8748C20.3937 12.6983 20.124 12.561 19.7857 12.4629C19.4523 12.3649 19.0404 12.3207 18.5501 12.3207C17.7803 12.3207 15.971 12.5855 14.0882 13.0611V10.9135C14.7109 10.6782 15.4317 10.4869 16.2505 10.3349C17.0693 10.1829 17.9225 10.1045 18.8051 10.1045C19.7759 10.1045 20.6045 10.1927 21.3008 10.3644C21.997 10.536 22.5707 10.7958 23.0169 11.144C23.468 11.4872 23.8014 11.9236 24.0171 12.4384C24.2329 12.9581 24.3407 13.5612 24.3407 14.2526V22.6223H21.3694H21.3743ZM18.5991 16.5031C17.0497 16.6061 16.0103 17.6505 16.1574 18.9743C16.2799 20.0628 17.2949 20.5727 18.2804 20.5727C19.5503 20.5727 21.1684 20.5727 21.2027 18.1702C21.2272 16.5031 20.3594 16.3854 18.5991 16.5031Z" fill="black"/>
<path d="M46.6985 22.6223V21.926C46.2818 22.431 45.0462 22.9017 43.6095 22.9017C42.0699 22.9017 40.3882 22.7007 39.437 21.8525C39.079 21.5338 38.8339 21.1268 38.6573 20.6561C38.4808 20.1903 38.3926 19.6755 38.3926 19.1116C38.3926 17.5475 38.8142 14.3801 44.8157 14.3801H46.5269V14.0957C46.522 13.5318 46.1396 13.0513 45.9287 12.8748C45.7179 12.6983 45.4482 12.561 45.1099 12.4629C44.7765 12.3649 44.3646 12.3207 43.8743 12.3207C43.1045 12.3207 41.2952 12.5855 39.4124 13.0611V10.9135C40.0351 10.6782 40.7559 10.4869 41.5747 10.3349C42.3936 10.1829 43.2467 10.1045 44.1293 10.1045C45.1001 10.1045 45.9287 10.1927 46.625 10.3644C47.3212 10.536 47.8949 10.7958 48.3411 11.144C48.7922 11.4872 49.1256 11.9236 49.3413 12.4384C49.5571 12.9581 49.6649 13.5612 49.6649 14.2526V22.6223H46.6936H46.6985ZM43.9233 16.5031C42.3739 16.6061 41.3345 17.6505 41.4816 18.9743C41.6041 20.0628 42.6191 20.5727 43.6046 20.5727C44.8746 20.5727 46.4926 20.5727 46.5269 18.1702C46.5514 16.5031 45.6836 16.3854 43.9233 16.5031Z" fill="black"/>
<path d="M73.5872 22.6223V21.926C73.1704 22.431 71.9348 22.9017 70.4982 22.9017C68.9586 22.9017 67.2768 22.7007 66.3256 21.8525C65.9677 21.5338 65.7225 21.1268 65.546 20.6561C65.3695 20.1903 65.2812 19.6755 65.2812 19.1116C65.2812 17.5475 65.7029 14.3801 71.7044 14.3801H73.4156V14.0957C73.4107 13.5318 73.0282 13.0513 72.8174 12.8748C72.6066 12.6983 72.3369 12.561 71.9986 12.4629C71.6652 12.3649 71.2533 12.3207 70.763 12.3207C69.9932 12.3207 68.1839 12.5855 66.3011 13.0611V10.9135C66.9238 10.6782 67.6446 10.4869 68.4634 10.3349C69.2822 10.1829 70.1354 10.1045 71.0179 10.1045C71.9888 10.1045 72.8174 10.1927 73.5137 10.3644C74.2099 10.536 74.7836 10.7958 75.2298 11.144C75.6809 11.4872 76.0143 11.9236 76.23 12.4384C76.4457 12.9581 76.5536 13.5612 76.5536 14.2526V22.6223H73.5823H73.5872ZM70.812 16.5031C69.2626 16.6061 68.2231 17.6505 68.3702 18.9743C68.4928 20.0628 69.5078 20.5727 70.4933 20.5727C71.7632 20.5727 73.3813 20.5727 73.4156 18.1702C73.4401 16.5031 72.5723 16.3854 70.812 16.5031Z" fill="black"/>
<path d="M36.8548 12.4533C37.0607 12.9681 37.1392 13.5712 37.1392 14.2184V22.6518H34.0011V14.39C34.0011 14.39 33.8639 12.6788 32.0595 12.5415C30.4316 12.4189 29.3382 13.8703 29.3382 14.4881V22.6469H26.1953V10.6783H29.1911V11.4824C29.1911 11.4824 30.0541 9.99188 33.1627 10.1341C33.1627 10.1341 35.9575 10.237 36.8499 12.4484L36.8548 12.4533Z" fill="black"/>
<path d="M62.9568 22.6326H59.4707L58.0831 18.4061L57.6565 17.0577L57.2299 18.4453L55.8914 22.6375H52.3905L50.5371 10.5659H53.5231L54.4645 17.3078L54.6852 19.2004L55.2098 17.499L56.5239 13.4294H58.9166L60.3189 17.4745L60.922 19.2249L61.1672 17.2833L61.9517 10.5659H64.7955L62.9568 22.6375V22.6326Z" fill="black"/>
<path d="M51.3438 0.210419C51.3438 0.210419 80.2038 1.06847 85.6806 22.559H100.003C81.8708 -3.73663 51.3438 0.210419 51.3438 0.210419Z" fill="#68C91C"/>
</svg>
