<svg width="284" height="251" viewBox="0 0 284 251" fill="none" xmlns="http://www.w3.org/2000/svg">
<path d="M14.5088 9.7455C16.394 8.61778 18.5316 8.0455 20.9553 8.0455C23.2108 8.0455 25.1969 8.53362 26.9305 9.52669C28.6474 10.5198 29.9939 12.0009 30.9365 13.9871H40.4968C39.1166 9.79599 36.676 6.49699 33.1919 4.12374C29.7246 1.76731 25.6513 0.572266 21.0226 0.572266C17.0672 0.572266 13.4821 1.48117 10.3009 3.28216C7.10293 5.08314 4.59502 7.60788 2.76038 10.8227C0.925737 14.0544 0 17.7069 0 21.7801C0 25.8534 0.925737 29.5058 2.76038 32.7207C4.59502 35.9355 7.11976 38.4434 10.3009 40.2444C13.4821 42.0454 17.0672 42.9543 21.0226 42.9543C25.7018 42.9543 29.7751 41.7761 33.2424 39.4196C36.7097 37.0632 39.1334 33.7642 40.5305 29.5226H30.9701C30.0107 31.5088 28.681 33.0068 26.9642 34.0167C25.2474 35.0266 23.2444 35.5315 20.989 35.5315C18.5652 35.5315 16.4276 34.9593 14.5425 33.8315C12.6574 32.7038 11.193 31.1048 10.1494 29.0177C9.10589 26.9306 8.56728 24.5237 8.56728 21.7969C8.56728 19.0702 9.08906 16.6128 10.1494 14.5425C11.193 12.489 12.6574 10.89 14.5425 9.76233L14.5088 9.7455Z" fill="white"/>
<path d="M70.2793 11.2436C67.7041 9.82974 64.8259 9.13965 61.6616 9.13965C58.4972 9.13965 55.619 9.84658 53.0438 11.2436C50.4686 12.6575 48.432 14.6436 46.9508 17.2188C45.4696 19.7941 44.729 22.7733 44.729 26.1396C44.729 29.5059 45.4528 32.4851 46.9003 35.0603C48.3478 37.6356 50.3339 39.6217 52.8755 41.0356C55.4171 42.4494 58.2616 43.1395 61.4259 43.1395C64.5903 43.1395 67.5358 42.4326 70.1279 41.0356C72.7199 39.6217 74.7902 37.6356 76.3051 35.0603C77.8367 32.4851 78.5942 29.5227 78.5942 26.1396C78.5942 22.7564 77.8536 19.7941 76.3724 17.2188C74.8912 14.6436 72.8546 12.6575 70.2793 11.2436ZM68.8487 31.4752C68.0576 32.9396 66.9972 34.0336 65.6675 34.7742C64.3378 35.5148 62.9239 35.8683 61.4259 35.8683C59.0527 35.8683 57.0834 35.0267 55.5181 33.3435C53.9527 31.6603 53.1785 29.2534 53.1785 26.1227C53.1785 22.9921 53.9864 20.5851 55.5854 18.902C57.1844 17.2188 59.1873 16.3772 61.5606 16.3772C63.9338 16.3772 65.9536 17.2188 67.5863 18.902C69.2358 20.5851 70.0605 22.9921 70.0605 26.1227C70.0605 28.2267 69.6566 30.0109 68.8655 31.4752H68.8487Z" fill="white"/>
<path d="M101.035 9.18945C98.9813 9.18945 97.0793 9.59341 95.3625 10.4013C93.6457 11.2092 92.215 12.337 91.121 13.7677V9.66074H82.8062V42.5834H91.121V24.4052C91.121 21.7963 91.7774 19.7765 93.1071 18.3795C94.4368 16.9657 96.2546 16.2756 98.5437 16.2756C100.833 16.2756 102.583 16.9825 103.896 18.3795C105.209 19.7934 105.849 21.7963 105.849 24.4052V42.5834H114.163V23.2775C114.163 18.834 112.952 15.3835 110.545 12.9092C108.121 10.435 104.957 9.18945 101.035 9.18945Z" fill="white"/>
<rect x="26.0815" y="58.1396" width="62" height="38.1445" rx="19.0723" fill="black" fill-opacity="0.4"/>
<rect x="26.3602" y="58.4183" width="61.4428" height="37.5873" rx="18.7936" stroke="white" stroke-opacity="0.5" stroke-width="0.557226"/>
<path d="M54.0366 69.4561V73.5342H56.3218V74.958H54.0366V78.9482H52.3667V69.4561H54.0366ZM41.6792 72.3916V71.0557H45.5464V69.333H47.2163V71.0557H51.0659V72.3916H41.6792ZM42.5405 75.8896C42.5317 74.2109 44.0786 73.0771 46.3726 73.0771C48.6489 73.0771 50.187 74.2109 50.187 75.8896C50.187 77.5947 48.6401 78.7109 46.3726 78.7197C44.0786 78.7109 42.5317 77.5947 42.5405 75.8896ZM43.9819 85.0127V79.7744H54.0366V85.0127H43.9819ZM44.1577 75.8896C44.1401 76.8652 45.0366 77.4453 46.3726 77.4541C47.7085 77.4453 48.605 76.8652 48.6226 75.8896C48.605 74.9492 47.7085 74.3516 46.3726 74.3604C45.0366 74.3516 44.1401 74.9492 44.1577 75.8896ZM45.6167 83.6592H52.3843V81.0928H45.6167V83.6592ZM61.1206 71.3193C61.103 74.8438 60.6636 78.5 58.4663 81.585L57.1655 80.8467C59.0024 78.3857 59.5562 75.6523 59.6704 72.6904H57.5347V71.3193H61.1206ZM60.6987 81.7783C62.7378 79.0361 63.1157 75.7402 63.1772 72.6904H61.5952V71.3193H64.6187C64.6187 72.6465 64.5835 74.0879 64.4165 75.5557H66.271V69.8604H67.853V84.4326H66.271V76.9092H64.2231C63.8716 78.8691 63.2212 80.8115 61.9995 82.5342L60.6987 81.7783ZM69.2417 85.2061V69.4561H70.8413V85.2061H69.2417Z" fill="white"/>
<path d="M135.541 35.5709V28.7587H128.753V26.4839H135.541V19.6841H137.828V26.4839H144.64V28.7587H137.828V35.5709H135.541Z" fill="white"/>
<path d="M177.437 8.9624C175.384 8.9624 173.482 9.36636 171.765 10.1743C170.048 10.9822 168.617 12.1099 167.523 13.5406V9.43369H159.208V42.3566H167.523V24.1783C167.523 21.5694 168.18 19.5496 169.509 18.1525C170.839 16.7387 172.657 16.0486 174.946 16.0486C177.235 16.0486 178.986 16.7555 180.298 18.1525C181.611 19.5664 182.268 21.5694 182.268 24.1783V42.3566H190.583V23.0506C190.583 18.607 189.371 15.1565 186.964 12.6822C184.54 10.208 181.376 8.9624 177.454 8.9624H177.437Z" fill="white"/>
<path d="M219.706 10.9153C217.232 9.56878 214.421 8.89551 211.29 8.89551C208.16 8.89551 205.164 9.58561 202.673 10.9826C200.181 12.3628 198.229 14.349 196.849 16.9242C195.469 19.4995 194.762 22.4955 194.762 25.8956C194.762 29.2956 195.469 32.2411 196.866 34.8164C198.28 37.3916 200.232 39.3778 202.757 40.7916C205.265 42.2055 208.109 42.8956 211.29 42.8956C215.212 42.8956 218.528 41.8689 221.221 39.8322C223.914 37.7956 225.732 35.1867 226.691 32.0223H217.72C216.407 34.6817 214.219 36.0114 211.122 36.0114C208.984 36.0114 207.183 35.3382 205.719 33.9916C204.255 32.6451 203.413 30.7768 203.228 28.4035H227.297C227.449 27.4441 227.533 26.3837 227.533 25.1886C227.533 21.9738 226.843 19.1292 225.479 16.6549C224.116 14.1807 222.197 12.2619 219.723 10.9153H219.706ZM203.278 22.7985C203.598 20.5767 204.457 18.8431 205.871 17.5975C207.284 16.352 209.018 15.7292 211.072 15.7292C213.243 15.7292 215.094 16.3688 216.592 17.6648C218.09 18.9609 218.865 20.6609 218.915 22.7985H203.278Z" fill="white"/>
<path d="M247.957 15.9812C249.623 15.9812 251.02 16.3851 252.148 17.1931C253.275 18.001 254.083 19.1287 254.555 20.5426H263.526C262.617 16.8564 260.816 13.995 258.14 11.9584C255.463 9.92176 252.08 8.89502 248.007 8.89502C244.843 8.89502 242.032 9.60195 239.574 10.999C237.117 12.4129 235.198 14.3822 233.818 16.9406C232.438 19.499 231.731 22.4782 231.731 25.8782C231.731 29.2782 232.421 32.2743 233.818 34.8159C235.198 37.3743 237.117 39.3605 239.574 40.7575C242.032 42.1714 244.843 42.8615 248.007 42.8615C252.047 42.8615 255.413 41.8179 258.106 39.7139C260.799 37.61 262.6 34.7822 263.509 31.2139H254.538C253.511 34.2268 251.306 35.7248 247.94 35.7248C245.567 35.7248 243.681 34.8664 242.301 33.1327C240.921 31.4159 240.214 28.9753 240.214 25.8446C240.214 22.7139 240.904 20.2228 242.301 18.5059C243.681 16.7891 245.567 15.9139 247.94 15.9139L247.957 15.9812Z" fill="white"/>
<path d="M276.101 0.816406H267.719V32.1403C267.719 38.9571 271.22 42.3571 278.239 42.3571H283.474V35.3383H279.602C278.34 35.3383 277.431 35.0858 276.892 34.5977C276.354 34.1096 276.085 33.3017 276.085 32.1908V16.8066H283.457V9.43425H276.085V0.816406H276.101Z" fill="white"/>
<rect x="178.696" y="57.8955" width="85.289" height="38.1445" rx="19.0723" fill="black" fill-opacity="0.4"/>
<rect x="178.975" y="58.1741" width="84.7318" height="37.5873" rx="18.7936" stroke="white" stroke-opacity="0.5" stroke-width="0.557226"/>
<path d="M203.552 69.2295V80.8311H201.882V76.7354H197.971C197.232 77.623 196.09 78.1592 194.78 78.1592C192.407 78.1592 190.641 76.498 190.649 74.1865C190.641 71.8574 192.407 70.1963 194.78 70.1787C196.081 70.1875 197.215 70.7236 197.953 71.6025H201.882V69.2295H203.552ZM192.249 74.1865C192.24 75.6719 193.304 76.6914 194.78 76.6826C196.195 76.6914 197.276 75.6719 197.276 74.1865C197.276 72.7012 196.195 71.6816 194.78 71.6729C193.304 71.6816 192.24 72.7012 192.249 74.1865ZM193.321 84.6279V79.6182H194.991V83.2744H203.974V84.6279H193.321ZM198.691 72.9561C198.814 73.3428 198.876 73.7471 198.876 74.1865C198.876 74.6084 198.814 75.0127 198.7 75.3818H201.882V72.9561H198.691ZM219.108 69.2119V77.2275H217.438V75.7158H213.448V74.415H217.438V72.71H213.642C212.666 75.1533 210.284 76.7705 206.804 77.5791L206.224 76.208C210.003 75.373 212.042 73.6152 212.314 71.3037H207.05V69.9326H214.151C214.151 70.4424 214.107 70.9258 214.02 71.3916H217.438V69.2119H219.108ZM208.808 79.2139V77.8955H219.108V81.8857H210.495V83.4678H219.583V84.8037H208.843V80.6201H217.438V79.2139H208.808ZM233.804 69.2119V75.5928H236.335V76.9814H233.804V84.9619H232.151V69.2119H233.804ZM221.446 73.0439V71.6729H225.331V69.4229H227.001V71.6729H230.78V73.0439H221.446ZM222.255 77.8604C222.255 75.7158 223.907 74.2041 226.175 74.2041C228.434 74.2041 230.086 75.7158 230.095 77.8604C230.086 80.0225 228.434 81.5254 226.175 81.5342C223.907 81.5254 222.255 80.0225 222.255 77.8604ZM223.854 77.8604C223.846 79.2314 224.83 80.1455 226.175 80.1279C227.511 80.1455 228.486 79.2314 228.495 77.8604C228.486 76.5156 227.511 75.584 226.175 75.5752C224.83 75.584 223.846 76.5156 223.854 77.8604ZM249.835 70.7236V72.2705C249.826 74.2129 249.826 76.3926 249.237 79.6182L247.55 79.4424C248.156 76.3926 248.156 74.1602 248.165 72.2705V72.0771H238.603V70.7236H249.835ZM237.091 82.835V81.4463H242.558V75.8916H244.21V81.4463H251.452V82.835H237.091Z" fill="white"/>
<g clip-path="url(#clip0_639_20043)">
<path d="M142.737 111.284L142.737 136.545L148.327 130.955L149.737 132.375L141.737 140.375L133.737 132.375L135.147 130.965L140.737 136.545L140.737 111.284L142.737 111.284Z" fill="white"/>
</g>
<path d="M108.815 155.375L101.425 187.456L93.4473 155.375H84.1731L75.7237 187.641L68.4019 155.375H59.4644L70.6573 196.932H80.4197L88.583 167.342L96.376 196.932H106.189L117.803 155.375H108.815Z" fill="white"/>
<path d="M172.713 189.256L164.381 164.009H155.477L167.596 196.931H177.695L189.881 164.009H181.027L172.713 189.256Z" fill="white"/>
<path d="M223.993 179.747C223.993 176.532 223.303 173.687 221.94 171.213C220.576 168.739 218.657 166.82 216.183 165.473C213.709 164.127 210.898 163.454 207.767 163.454C204.637 163.454 201.641 164.144 199.15 165.541C196.659 166.921 194.706 168.907 193.326 171.482C191.946 174.058 191.239 177.054 191.239 180.454C191.239 183.854 191.946 186.799 193.343 189.374C194.757 191.95 196.709 193.936 199.234 195.35C201.742 196.763 204.586 197.453 207.767 197.453C211.689 197.453 215.005 196.427 217.698 194.39C220.391 192.353 222.209 189.745 223.168 186.58H214.197C212.884 189.24 210.696 190.569 207.599 190.569C205.461 190.569 203.66 189.896 202.196 188.55C200.732 187.203 199.89 185.335 199.705 182.961H223.774C223.926 182.002 224.01 180.942 224.01 179.747H223.993ZM199.739 177.373C200.059 175.152 200.917 173.418 202.331 172.172C203.745 170.927 205.461 170.304 207.532 170.304C209.703 170.304 211.555 170.944 213.053 172.24C214.551 173.536 215.325 175.236 215.375 177.373H199.739Z" fill="white"/>
<path d="M142.741 168.689C141.63 167.191 140.149 165.929 138.315 164.952C136.48 163.959 134.325 163.471 131.868 163.471C129.057 163.471 126.516 164.161 124.226 165.558C121.954 166.939 120.153 168.925 118.824 171.5C117.494 174.075 116.837 177.021 116.837 180.353C116.837 183.686 117.494 186.699 118.824 189.291C120.153 191.883 121.954 193.903 124.226 195.317C126.499 196.747 129.023 197.454 131.801 197.454C134.258 197.454 136.429 196.949 138.315 195.939C140.2 194.929 141.681 193.65 142.741 192.102V196.916H151.123V164.01H142.741V168.706V168.689ZM141.546 185.655C140.755 187.103 139.678 188.214 138.331 188.988C136.985 189.762 135.537 190.149 133.989 190.149C132.44 190.149 131.06 189.762 129.747 188.954C128.418 188.163 127.357 187.019 126.532 185.537C125.724 184.056 125.321 182.323 125.321 180.336C125.321 178.35 125.724 176.65 126.532 175.203C127.34 173.755 128.401 172.661 129.714 171.904C131.026 171.146 132.44 170.776 133.989 170.776C135.537 170.776 136.985 171.163 138.331 171.937C139.678 172.712 140.755 173.823 141.546 175.27C142.337 176.718 142.741 178.451 142.741 180.471C142.741 182.491 142.337 184.225 141.546 185.672V185.655Z" fill="white"/>
<rect x="43.5923" y="212.454" width="196.289" height="38.1445" rx="19.0723" fill="black" fill-opacity="0.4"/>
<rect x="43.8709" y="212.733" width="195.732" height="37.5873" rx="18.7936" stroke="white" stroke-opacity="0.5" stroke-width="0.557226"/>
<path d="M67.9028 224.562V225.95C67.9116 227.471 67.9116 229.132 67.4634 231.452H69.7134V232.806H55.3169V231.452H65.7759C65.9692 230.538 66.0835 229.721 66.145 228.965L56.9341 229.378L56.7231 227.989L66.2241 227.726C66.2505 227.093 66.2505 226.504 66.2505 225.95V225.933H57.1274V224.562H67.9028ZM57.0923 239.187V234.247H58.7622V237.833H68.2192V239.187H57.0923ZM84.2856 225.388V226.759H82.6685V234.098C83.4507 234.036 84.2153 233.966 84.9536 233.878L85.0415 235.091C81.7456 235.645 78.0278 235.697 75.2681 235.706L75.0747 234.317C75.6987 234.317 76.3755 234.309 77.0786 234.3V226.759H75.4614V225.388H84.2856ZM78.6958 234.273C79.4692 234.256 80.2603 234.229 81.0513 234.194V226.759H78.6958V234.273ZM85.8677 239.521V223.771H87.5376V229.976H90.0688V231.347H87.5376V239.521H85.8677ZM103.586 231.03V232.366H98.8228V236.216H105.239V237.587H90.8247V236.216H97.1704V232.366H92.6177V224.983H103.446V226.337H94.2876V231.03H103.586ZM120.778 230.995V232.278H106.364V230.995H120.778ZM108.069 234.581V233.386H119.002V236.849H109.756V238.149H119.495V239.327H108.086V235.741H117.35V234.581H108.069ZM108.174 225.353V224.175H118.967V227.585H109.862V228.78H119.231V229.958H108.209V226.478H117.297V225.353H108.174ZM134.313 225.159V232.507H126.948V225.159H134.313ZM128.583 231.188H132.678V226.513H128.583V231.188ZM128.723 239.187V234.194H130.393V237.833H139.375V239.187H128.723ZM137.038 235.302V223.753H138.708V228.464H140.993V229.87H138.708V235.302H137.038ZM156.268 230.222V231.558H141.889V230.222H156.268ZM143.612 234.089V232.806H154.44V236.62H145.264V238.026H154.879V239.345H143.629V235.39H152.788V234.089H143.612ZM143.77 229.079V224.228H154.405V225.581H145.44V227.743H154.563V229.079H143.77ZM161.717 224.948C163.862 224.957 165.417 226.768 165.672 229.677H168.924V223.771H170.577V239.556H168.924V231.03H165.69C165.505 234.106 163.915 236.014 161.717 236.005C159.371 236.014 157.709 233.869 157.727 230.468C157.709 227.102 159.371 224.957 161.717 224.948ZM159.309 230.468C159.318 232.973 160.293 234.511 161.717 234.511C163.141 234.511 164.117 232.973 164.125 230.468C164.117 227.998 163.141 226.451 161.717 226.442C160.293 226.451 159.318 227.998 159.309 230.468ZM190.879 223.771V239.521H189.28V231.452H187.258V238.712H185.694V224.087H187.258V230.081H189.28V223.771H190.879ZM178.135 235.513V225.634H179.805V234.045C181.255 234.027 182.846 233.913 184.639 233.562L184.815 235.021C182.653 235.407 180.851 235.521 179.155 235.513H178.135ZM205.698 228.376V229.712H194.852V224.333H196.504V228.376H205.698ZM192.936 233.034V231.698H207.35V233.034H192.936ZM194.729 239.151V234.528H196.399V237.78H205.803V239.151H194.729ZM226.036 223.788V234.37H224.366V229.501H221.149V228.13H224.366V223.788H226.036ZM213.133 232.138C216.842 231.013 218.943 228.974 219.259 226.354H213.942V225.001H221.043C221.043 229.114 218.486 231.997 213.872 233.456L213.133 232.138ZM214.803 238.132C217.765 237.657 220.015 235.864 220.024 233.72V233.069H221.676V233.72C221.676 235.847 223.9 237.604 226.862 238.114L226.176 239.433C223.786 239.002 221.791 237.807 220.841 236.075C219.883 237.815 217.862 239.02 215.454 239.468L214.803 238.132Z" fill="white"/>
<defs>
<clipPath id="clip0_639_20043">
<rect width="29.0909" height="16" fill="white" transform="matrix(1.19249e-08 -1 -1 -1.19249e-08 149.737 140.375)"/>
</clipPath>
</defs>
</svg>
