<svg width="100" height="26" viewBox="0 0 100 26" fill="none" xmlns="http://www.w3.org/2000/svg">
<path d="M31.127 22.2846V5.99268H37.0582C38.8762 5.99268 40.2727 6.32642 41.2505 6.99391C42.2283 7.66139 42.7172 8.60114 42.7172 9.81023C42.7172 10.6885 42.4186 11.4585 41.8243 12.1172C41.23 12.7759 40.4718 13.2355 39.5467 13.4931V13.54C40.706 13.6834 41.6311 14.1108 42.3249 14.8252C43.0188 15.5366 43.3642 16.4031 43.3642 17.4278C43.3642 18.9208 42.8314 20.1036 41.7628 20.9789C40.6943 21.8543 39.2363 22.2905 37.389 22.2905H31.1299L31.127 22.2846ZM34.7981 8.69482V12.5592H36.4112C37.1695 12.5592 37.7638 12.3748 38.2 12.0088C38.6362 11.6429 38.8528 11.1364 38.8528 10.4924C38.8528 9.29498 37.9599 8.69775 36.1712 8.69775H34.7952L34.7981 8.69482ZM34.7981 15.2848V19.5795H36.786C37.6349 19.5795 38.2995 19.3834 38.7796 18.9882C39.2597 18.5929 39.4998 18.0572 39.4998 17.3751C39.4998 16.6929 39.2627 16.2128 38.7884 15.841C38.3141 15.4692 37.6525 15.2848 36.8064 15.2848H34.7952H34.7981Z" fill="#323030"/>
<path d="M48.7613 10.8589V17.0478C48.7613 17.4371 48.7847 17.7884 48.8316 18.1076C48.8784 18.4267 48.9633 18.7194 49.0863 18.9917C49.2092 19.2639 49.3995 19.4835 49.6572 19.6562C49.9119 19.826 50.2339 19.9109 50.6233 19.9109C51.0126 19.9109 51.3317 19.826 51.5894 19.6562C51.8441 19.4864 52.0343 19.2639 52.1602 18.9917C52.2832 18.7194 52.371 18.4267 52.4179 18.1076C52.4647 17.7884 52.4881 17.4371 52.4881 17.0478V10.8589H55.7465V17.5835C55.7465 20.9649 54.0397 22.657 50.6262 22.657C47.2126 22.657 45.5059 20.9649 45.5059 17.5835V10.8589H48.7642H48.7613Z" fill="#323030"/>
<path d="M61.4068 4.70515C61.7874 5.08574 61.9777 5.53951 61.9777 6.06647C61.9777 6.59344 61.7903 7.0677 61.4185 7.43951C61.0467 7.81131 60.5871 7.99867 60.0455 7.99867C59.5039 7.99867 59.0442 7.81131 58.6724 7.43951C58.3006 7.0677 58.1133 6.611 58.1133 6.06647C58.1133 5.52195 58.3036 5.08574 58.6842 4.70515C59.0647 4.32457 59.5185 4.13428 60.0455 4.13428C60.5724 4.13428 61.0262 4.32457 61.4068 4.70515ZM61.6732 22.2852H58.4148V10.8589H61.6732V22.2852Z" fill="#323030"/>
<path d="M67.6334 22.2851H64.375V2.55322H67.6334V22.2851Z" fill="#323030"/>
<path d="M73.8259 22.2853H70.5675V13.6051H69.4492V10.859H70.5675V6.99756H73.8259V10.859H75.8284V13.6051H73.8259V22.2853Z" fill="#323030"/>
<path d="M84.4236 10.9289C85.1613 11.2246 85.7966 11.6461 86.3324 12.1965C86.8681 12.7469 87.278 13.3939 87.5649 14.1404C87.8518 14.884 87.9952 15.7008 87.9952 16.5849C87.9952 17.4691 87.8518 18.28 87.5649 19.0178C87.278 19.7555 86.871 20.3996 86.3441 20.95C85.8171 21.5003 85.1818 21.9248 84.4353 22.2176C83.6917 22.5133 82.8749 22.6597 81.9908 22.6597C81.1067 22.6597 80.2957 22.5133 79.558 22.2176C78.8202 21.9219 78.1849 21.5003 77.6492 20.95C77.1135 20.3996 76.7036 19.7555 76.4167 19.0178C76.1298 18.28 75.9863 17.4691 75.9863 16.5849C75.9863 15.7008 76.1298 14.887 76.4167 14.1404C76.7036 13.3968 77.1135 12.7469 77.6492 12.1965C78.1849 11.6461 78.8202 11.2246 79.558 10.9289C80.2957 10.6332 81.1067 10.4868 81.9908 10.4868C82.8749 10.4868 83.6858 10.6332 84.4236 10.9289ZM80.0498 14.3483C79.5463 15.0011 79.2945 15.7447 79.2945 16.582C79.2945 17.4193 79.5463 18.1424 80.0498 18.7923C80.5533 19.4452 81.2003 19.7701 81.9937 19.7701C82.7871 19.7701 83.4311 19.4452 83.9376 18.7923C84.4412 18.1395 84.6929 17.4047 84.6929 16.582C84.6929 15.7594 84.4441 15.0011 83.9493 14.3483C83.4516 13.6954 82.8017 13.3705 81.9937 13.3705C81.1857 13.3705 80.5533 13.6954 80.0498 14.3483Z" fill="#323030"/>
<path d="M93.0182 11.9067H93.065C93.39 11.4266 93.8145 11.0694 94.3326 10.8352C94.8508 10.6039 95.4217 10.4868 96.0423 10.4868C96.7859 10.4868 97.4154 10.6068 97.9277 10.8469C98.44 11.087 98.847 11.4295 99.1485 11.8716C99.45 12.3136 99.6667 12.823 99.8013 13.3968C99.9331 13.9706 100 14.6059 100 15.3056V22.2879H96.742V16.2366C96.742 15.7418 96.7274 15.3173 96.6952 14.9689C96.663 14.6205 96.5957 14.3014 96.4873 14.0145C96.379 13.7276 96.2004 13.5022 95.9516 13.3383C95.7027 13.1743 95.3778 13.0953 94.9738 13.0953C94.5229 13.0953 94.1628 13.2065 93.8906 13.432C93.6183 13.6574 93.4222 13.9443 93.2963 14.2927C93.1733 14.641 93.0943 15.0011 93.065 15.3759C93.0328 15.7477 93.0182 16.1663 93.0182 16.6318V22.2849H89.7598V10.8586H93.0182V11.9067Z" fill="#323030"/>
<path d="M82.6297 5.68213H86.9157L83.6661 8.78243H81.0078L82.6297 5.68213Z" fill="#323030"/>
<path d="M25.9968 12.9979C25.9968 20.1763 20.1768 25.9964 12.9984 25.9964C5.82001 25.9964 0 20.1763 0 12.9979C0 5.81953 5.82001 -0.000488281 12.9984 -0.000488281C20.1768 -0.000488281 25.9968 5.81953 25.9968 12.9979Z" fill="#323030"/>
<path d="M6.55917 18.7103C6.55917 19.2373 6.13174 19.6647 5.60478 19.6647C5.07782 19.6647 4.65039 19.2373 4.65039 18.7103V7.28691C4.65039 6.75995 5.07782 6.33252 5.60478 6.33252C6.13174 6.33252 6.55917 6.75995 6.55917 7.28691V18.7103Z" fill="#F7A847"/>
<path d="M13.9517 14.2538C13.9517 14.7808 13.5243 15.2082 12.9974 15.2082C12.4704 15.2082 12.043 14.7808 12.043 14.2538V11.7244C12.043 11.1974 12.4704 10.77 12.9974 10.77C13.5243 10.77 13.9517 11.1974 13.9517 11.7244V14.2538Z" fill="#8556A2"/>
<path d="M10.2564 12.1816C10.2564 12.7085 9.82901 13.136 9.30204 13.136C8.77508 13.136 8.34766 12.7085 8.34766 12.1816V9.65214C8.34766 9.12518 8.77508 8.69775 9.30204 8.69775C9.82901 8.69775 10.2564 9.12518 10.2564 9.65214V12.1816Z" fill="#EE4539"/>
<path d="M17.649 16.3442C17.649 16.8711 17.2216 17.2986 16.6946 17.2986C16.1677 17.2986 15.7402 16.8711 15.7402 16.3442V13.8147C15.7402 13.2878 16.1677 12.8604 16.6946 12.8604C17.2216 12.8604 17.649 13.2878 17.649 13.8147V16.3442Z" fill="#42ADCB"/>
<path d="M21.3443 18.7103C21.3443 19.2373 20.9169 19.6647 20.3899 19.6647C19.863 19.6647 19.4355 19.2373 19.4355 18.7103V7.28691C19.4355 6.75995 19.863 6.33252 20.3899 6.33252C20.9169 6.33252 21.3443 6.75995 21.3443 7.28691V18.7103Z" fill="#4CBD9E"/>
</svg>
