<svg width="101" height="23" viewBox="0 0 101 23" fill="none" xmlns="http://www.w3.org/2000/svg">
<path d="M41.6469 14.6044H38.8435V8.23473C38.8435 7.53215 38.2735 6.96045 37.5692 6.96045C36.8649 6.96045 36.2949 7.53043 36.2949 8.23473V15.877C36.2949 16.5709 36.8494 17.1323 37.5382 17.1495H41.6452C42.3495 17.1495 42.9195 16.5795 42.9195 15.8752C42.9195 15.1709 42.3495 14.601 41.6452 14.601" fill="#0072CE"/>
<path d="M52.7392 15.3555L49.705 7.77177C49.6981 7.75455 49.693 7.73905 49.6861 7.72183L49.6826 7.71322C49.4846 7.26894 49.0386 6.95898 48.5203 6.95898C48.002 6.95898 47.556 7.26894 47.3579 7.71322L47.3528 7.72527C47.3476 7.73733 47.3424 7.74938 47.339 7.76144L44.3014 15.3555C44.2308 15.5139 44.1895 15.6895 44.1895 15.8755C44.1895 16.5781 44.7594 17.1498 45.4637 17.1498C45.9821 17.1498 46.4281 16.8398 46.6261 16.3955L46.6312 16.3852C46.6381 16.3714 46.6416 16.3577 46.6485 16.3439L48.522 11.6618L50.4162 16.3973C50.7038 17.0396 51.4563 17.3272 52.0986 17.0413C52.7409 16.7537 53.0285 16.0012 52.7426 15.3589" fill="#0072CE"/>
<path d="M70.579 15.3608L67.5449 7.77714C67.538 7.75992 67.5328 7.74442 67.5259 7.7272L67.5225 7.71859C67.3244 7.27432 66.8784 6.96436 66.3601 6.96436C65.8418 6.96436 65.3958 7.27432 65.1978 7.71859L65.1926 7.73065C65.1874 7.7427 65.1823 7.75475 65.1788 7.76681L62.1412 15.3608C62.0706 15.5193 62.0293 15.6949 62.0293 15.8809C62.0293 16.5835 62.5993 17.1552 63.3036 17.1552C63.8219 17.1552 64.2679 16.8452 64.4659 16.4009L64.4711 16.3906C64.478 16.3768 64.4814 16.363 64.4883 16.3493L66.3619 11.6671L68.2561 16.4026C68.5436 17.0449 69.2961 17.3325 69.9384 17.0467C70.5807 16.7591 70.8683 16.0066 70.5825 15.3643" fill="#0072CE"/>
<path d="M79.3479 6.96952C78.6436 6.96952 78.0736 7.5395 78.0736 8.2438V12.8295C78.0736 13.8145 77.2746 14.6135 76.2896 14.6135C75.3046 14.6135 74.5056 13.8145 74.5056 12.8295V8.23347C74.5039 7.53262 73.9339 6.96436 73.2313 6.96436C72.5287 6.96436 71.9605 7.53262 71.957 8.23347V12.8295C71.957 15.2213 73.896 17.1603 76.2879 17.1603C78.6797 17.1603 80.6187 15.2213 80.6187 12.8295V8.2438C80.6187 7.54123 80.0487 6.96952 79.3444 6.96952" fill="#0072CE"/>
<path d="M95.656 6.93115C92.8422 6.93115 90.5605 9.2128 90.5605 12.0266C90.5605 14.8403 92.8422 17.122 95.656 17.122C98.4697 17.122 100.751 14.8403 100.751 12.0266C100.751 9.2128 98.4697 6.93115 95.656 6.93115ZM95.656 14.5734C94.2491 14.5734 93.1074 13.4334 93.1074 12.0248C93.1074 10.6162 94.2474 9.47799 95.656 9.47799C97.0645 9.47799 98.2045 10.618 98.2045 12.0248C98.2045 13.4317 97.0645 14.5734 95.656 14.5734Z" fill="#0072CE"/>
<path d="M89.2856 6.96901H83.1708C82.4682 6.96901 81.8965 7.53899 81.8965 8.24329C81.8965 8.94759 82.4665 9.51757 83.1708 9.51757H84.9548V15.8872C84.9548 16.5898 85.5247 17.1615 86.229 17.1615C86.9333 17.1615 87.5033 16.5915 87.5033 15.8872V9.51585H89.2873C89.9916 9.51585 90.5616 8.94586 90.5616 8.24157C90.5616 7.53727 89.9916 6.96729 89.2873 6.96729" fill="#0072CE"/>
<path d="M31.4526 6.95898C31.4199 6.95898 31.3872 6.96243 31.3544 6.96415H27.6298C26.9255 6.96415 26.3555 7.53413 26.3555 8.23843C26.3555 8.94273 26.9255 9.51271 27.6298 9.51271H31.4509V9.50755C32.014 9.50755 32.4703 9.96388 32.4703 10.527C32.4703 11.0901 32.014 11.5464 31.4509 11.5464H27.659C26.9547 11.5464 26.3847 12.1164 26.3847 12.8207V15.8824C26.3847 16.5867 26.9547 17.1567 27.659 17.1567C28.3633 17.1567 28.9333 16.5867 28.9333 15.8824V14.0932H31.4509C33.4208 14.0932 35.0171 12.4969 35.0171 10.527C35.0171 8.557 33.4208 6.96071 31.4509 6.96071" fill="#0072CE"/>
<path d="M61.5957 9.06265C61.8523 8.7613 61.966 8.34286 61.8626 7.92958C61.6922 7.24766 61.0016 6.83094 60.318 7.00142C60.0494 7.06858 59.8238 7.21667 59.6568 7.41125L57.3751 10.0872L55.0935 7.40953C54.9264 7.21495 54.7008 7.06685 54.4322 6.9997C53.7503 6.82922 53.0581 7.24422 52.8876 7.92785C52.7843 8.34286 52.8979 8.75958 53.1545 9.06093L56.1129 12.5325V15.8766C56.1129 16.5809 56.6829 17.1509 57.3872 17.1509C58.0915 17.1509 58.6614 16.5809 58.6614 15.8766V12.5032L61.5957 9.05921V9.06265Z" fill="#0072CE"/>
<path d="M17.0759 10.4609C17.0759 9.91332 16.7779 9.43804 16.3371 9.18147L16.3182 9.17113C16.3061 9.16425 16.2923 9.15736 16.2803 9.15047L11.6791 6.68973C11.4621 6.56402 11.2107 6.4917 10.9404 6.4917C10.1241 6.4917 9.46289 7.15295 9.46289 7.96918C9.46289 8.51677 9.7608 8.99205 10.2016 9.24862L10.2206 9.25896C10.2326 9.26584 10.2464 9.27273 10.2585 9.27962L14.8596 11.7404C15.0766 11.8661 15.328 11.9384 15.5984 11.9384C16.4146 11.9384 17.0759 11.2771 17.0759 10.4609Z" fill="#0085CA"/>
<path d="M17.0759 12.1752C17.0759 11.359 16.4146 10.6978 15.5984 10.6978C15.3297 10.6978 15.0783 10.7718 14.8596 10.8975L10.2653 13.3238C10.2498 13.3324 10.2343 13.3393 10.2188 13.3496L10.2016 13.3582C9.7608 13.6148 9.46289 14.0901 9.46289 14.6377C9.46289 15.4539 10.1241 16.1152 10.9404 16.1152C11.209 16.1152 11.4621 16.0411 11.6791 15.9154L16.2734 13.4891C16.2889 13.4805 16.3044 13.4736 16.3199 13.465L16.3371 13.4564C16.7779 13.1998 17.0759 12.7245 17.0759 12.177" fill="#0057B8"/>
<path d="M3.70495 6.38013C3.70495 6.38013 3.70495 6.37496 3.70495 6.37152C3.70495 5.55529 3.0437 4.89404 2.22748 4.89404C1.41125 4.89404 0.75 5.55529 0.75 6.37152V15.8236C0.75 16.6398 1.41125 17.3011 2.22748 17.3011C3.0437 17.3011 3.70495 16.6398 3.70495 15.8236C3.70495 15.8219 3.70495 15.8184 3.70495 15.815V6.38013Z" fill="#0072CE"/>
<path d="M21.2418 6.43018C21.2418 5.88258 20.9439 5.40731 20.503 5.15073L20.4703 5.13179C20.4703 5.13179 20.4686 5.13179 20.4669 5.13007L11.7553 0.201705C11.5366 0.0759991 11.2852 0.00195312 11.0165 0.00195312C10.2003 0.00195312 9.53906 0.664923 9.53906 1.48115C9.53906 2.02703 9.83697 2.50402 10.2778 2.7606L10.3105 2.77954C10.3105 2.77954 10.3122 2.77954 10.314 2.78126L19.0256 7.70963C19.2425 7.83533 19.4939 7.90766 19.7643 7.90766C20.5805 7.90766 21.2418 7.24641 21.2418 6.43018Z" fill="#0057B8"/>
<path d="M12.4872 1.47943C12.4872 0.663201 11.8259 0.00195312 11.0097 0.00195312C10.741 0.00195312 10.4896 0.0759991 10.2709 0.201705L1.52834 5.0698C1.52318 5.07152 1.51973 5.07497 1.51457 5.07669L1.48874 5.09219C1.04791 5.34876 0.75 5.82404 0.75 6.37163C0.75 7.18786 1.41125 7.84911 2.22748 7.84911C2.49611 7.84911 2.74924 7.77678 2.96621 7.64936L11.7088 2.78126C11.714 2.77954 11.7174 2.7761 11.7226 2.77437L11.7484 2.75888C12.1892 2.5023 12.4872 2.02703 12.4872 1.47943Z" fill="#41B6E6"/>
<path d="M12.4217 20.7114C12.4217 20.1638 12.1238 19.6886 11.683 19.432L11.6554 19.4148C11.652 19.413 11.6485 19.4113 11.6451 19.4096L2.96621 14.5467C2.74924 14.421 2.49783 14.3486 2.22748 14.3486C1.41125 14.3486 0.75 15.0099 0.75 15.8261C0.75 16.3737 1.04791 16.849 1.49046 17.1056L1.51973 17.1228C1.52318 17.1228 1.52662 17.1262 1.53007 17.1279L10.2072 21.9909C10.4242 22.1166 10.6756 22.1889 10.946 22.1889C11.7622 22.1889 12.4234 21.5277 12.4234 20.7114" fill="#0057B8"/>
<path d="M12.4178 20.7105C12.4178 20.7105 12.4178 20.707 12.4178 20.7053V7.97629C12.4178 7.97629 12.4178 7.97285 12.4178 7.97113C12.4178 7.1549 11.7566 6.49365 10.9404 6.49365C10.1241 6.49365 9.46289 7.1549 9.46289 7.97113V20.7105C9.46289 21.5267 10.1241 22.188 10.9404 22.188C11.7566 22.188 12.4178 21.5267 12.4178 20.7105Z" fill="#41B6E6"/>
<path d="M12.4196 20.7036C12.4196 20.5727 12.4006 20.447 12.3679 20.3265C12.3335 20.2008 12.2852 20.0802 12.2198 19.97C12.0907 19.7462 11.903 19.5585 11.6791 19.4293L11.6516 19.4121L11.6412 19.4069L9.46289 18.186V20.7088C9.46289 20.8414 9.48183 20.9688 9.51455 21.091C9.54899 21.2168 9.59721 21.3373 9.66264 21.4475C9.72808 21.5594 9.80557 21.6628 9.89683 21.754C9.9881 21.8453 10.0914 21.9228 10.2034 21.9882C10.3136 22.0519 10.4341 22.1019 10.5598 22.1346C10.6821 22.1673 10.8095 22.1862 10.9421 22.1862C11.0747 22.1862 11.2021 22.1673 11.3244 22.1346C11.4501 22.1001 11.5706 22.0519 11.6808 21.9882C11.9047 21.8591 12.0907 21.6714 12.2215 21.4475C12.2852 21.3373 12.3352 21.2168 12.3696 21.091C12.4023 20.9688 12.4213 20.8414 12.4213 20.7088C12.4213 20.707 12.4213 20.7053 12.4213 20.7036" fill="#0085CA"/>
<path d="M15.6044 8.98389C14.7882 8.98389 14.127 9.64514 14.127 10.4614V12.173C14.127 12.9893 14.7882 13.6505 15.6044 13.6505C16.4207 13.6505 17.0819 12.9893 17.0819 12.173V10.4614C17.0819 9.64514 16.4207 8.98389 15.6044 8.98389Z" fill="#005EB8"/>
<path d="M12.4345 1.09691C12.4001 0.971208 12.3519 0.850668 12.2882 0.74046C12.2227 0.62853 12.1452 0.52521 12.054 0.433944C11.9627 0.342678 11.8594 0.265188 11.7475 0.199752C11.6373 0.136038 11.5167 0.0861 11.391 0.05166C11.2687 0.018942 11.1413 0 11.0087 0C10.8761 0 10.7487 0.018942 10.6264 0.05166C10.5007 0.0861 10.3802 0.134316 10.27 0.199752C10.1581 0.265188 10.0547 0.342678 9.96347 0.433944C9.87221 0.52521 9.79472 0.62853 9.72928 0.74046C9.66557 0.850668 9.61563 0.971208 9.58291 1.09691C9.55019 1.21918 9.53125 1.3466 9.53125 1.4792C9.53125 1.61179 9.55019 1.73922 9.58291 1.86148C9.61735 1.98719 9.66557 2.10773 9.72928 2.21794C9.79472 2.32987 9.87221 2.43319 9.96347 2.52445C10.0547 2.61572 10.1581 2.69321 10.27 2.75864L10.301 2.77759H10.3044L11.0018 3.17365L11.7061 2.78103L11.7199 2.77414L11.7457 2.75864C11.8577 2.69321 11.961 2.614 12.0523 2.52445C12.1435 2.43319 12.221 2.32987 12.2865 2.21794C12.3502 2.10773 12.4001 1.98719 12.4328 1.86148C12.4655 1.73922 12.4845 1.61179 12.4845 1.4792C12.4845 1.3466 12.4655 1.21918 12.4328 1.09691" fill="#00A3E0"/>
<path d="M3.65329 5.98998C3.61885 5.86427 3.57064 5.74373 3.50692 5.63353C3.44149 5.5216 3.364 5.41828 3.27273 5.32701C3.18146 5.23574 3.07814 5.15825 2.96621 5.09282C2.85601 5.0291 2.73547 4.97917 2.60976 4.94473C2.4875 4.91201 2.36007 4.89307 2.22748 4.89307C2.09488 4.89307 1.96745 4.91201 1.84519 4.94473C1.73326 4.974 1.62822 5.01533 1.52834 5.06871L1.51457 5.0756L1.48874 5.0911C1.37681 5.15653 1.27349 5.23574 1.18222 5.32529C1.09096 5.41655 1.01347 5.51987 0.94803 5.6318C0.884316 5.74201 0.834378 5.86255 0.80166 5.98826C0.768942 6.11224 0.75 6.23967 0.75 6.37226C0.75 6.50486 0.768942 6.63229 0.80166 6.75455C0.8361 6.88025 0.884316 7.00079 0.94803 7.111C1.01347 7.22293 1.09096 7.32625 1.18222 7.41752C1.27349 7.50879 1.37681 7.58627 1.48874 7.65171C1.59895 7.71542 1.71776 7.76536 1.84519 7.79808C1.96745 7.8308 2.09488 7.84974 2.22748 7.84974C2.36007 7.84974 2.4875 7.8308 2.60976 7.79808C2.73547 7.76364 2.85601 7.71542 2.96621 7.65171L3.70495 7.24187V6.38087C3.70495 6.38087 3.70495 6.37571 3.70495 6.37226C3.70495 6.23967 3.68601 6.11224 3.65329 5.98998Z" fill="#0085CA"/>
<path d="M3.70495 15.8175V14.9599L2.96621 14.5467C2.85601 14.4847 2.73547 14.4347 2.60976 14.4003C2.4875 14.3676 2.36007 14.3486 2.22748 14.3486C2.09488 14.3486 1.96745 14.3676 1.84519 14.4003C1.71949 14.4347 1.59895 14.4829 1.48874 14.5467C1.37681 14.6121 1.27349 14.6896 1.18222 14.7809C1.09096 14.8721 1.01347 14.9754 0.94803 15.0874C0.884316 15.1976 0.834378 15.3181 0.80166 15.4438C0.768942 15.5661 0.75 15.6935 0.75 15.8261C0.75 15.9587 0.768942 16.0861 0.80166 16.2084C0.8361 16.3341 0.884316 16.4546 0.94803 16.5648C1.01347 16.6768 1.09096 16.7801 1.18222 16.8714C1.27349 16.9626 1.37681 17.0401 1.48874 17.1056L1.51801 17.1228C1.52146 17.1228 1.5249 17.1262 1.52834 17.1279C1.62822 17.1813 1.73498 17.2227 1.84691 17.2536C1.96918 17.2864 2.0966 17.3053 2.2292 17.3053C2.36179 17.3053 2.48922 17.2864 2.61148 17.2536C2.73719 17.2192 2.85773 17.171 2.96794 17.1073C3.07987 17.0418 3.18319 16.9644 3.27445 16.8731C3.36572 16.7818 3.44321 16.6785 3.50864 16.5666C3.57236 16.4564 3.6223 16.3358 3.65501 16.2101C3.68773 16.0879 3.70667 15.9604 3.70667 15.8278C3.70667 15.8244 3.70667 15.8227 3.70667 15.8192" fill="#005EB8"/>
<path d="M12.4178 14.6308V12.1855L10.2653 13.3238L10.2188 13.3479L10.2016 13.3565C10.0897 13.4219 9.98638 13.5012 9.89511 13.5907C9.80385 13.682 9.72636 13.7853 9.66092 13.8972C9.59721 14.0074 9.54727 14.128 9.51455 14.2537C9.48183 14.3759 9.46289 14.5034 9.46289 14.636C9.46289 14.7685 9.48183 14.896 9.51455 15.0182C9.54899 15.1439 9.59721 15.2645 9.66092 15.3747C9.72636 15.4866 9.80385 15.5899 9.89511 15.6812C9.98638 15.7725 10.0897 15.85 10.2016 15.9154C10.3118 15.9791 10.4324 16.0291 10.5581 16.0618C10.6803 16.0945 10.8078 16.1134 10.9404 16.1134C11.073 16.1134 11.2004 16.0945 11.3227 16.0618C11.4484 16.0273 11.5689 15.9791 11.6791 15.9154L12.4178 15.5262V14.6411C12.4178 14.6411 12.4178 14.6377 12.4178 14.636C12.4178 14.6342 12.4178 14.6325 12.4178 14.6308Z" fill="#00A3E0"/>
<path d="M12.3662 7.58861C12.3317 7.46291 12.2835 7.34237 12.2198 7.23216C12.1544 7.12023 12.0769 7.01691 11.9856 6.92564C11.8944 6.83438 11.791 6.75689 11.6791 6.69145C11.5689 6.62774 11.4484 6.5778 11.3227 6.54336C11.2004 6.51064 11.073 6.4917 10.9404 6.4917C10.8078 6.4917 10.6803 6.51064 10.5581 6.54336C10.4324 6.5778 10.3118 6.62602 10.2016 6.69145C10.0897 6.75689 9.98638 6.83438 9.89511 6.92564C9.80385 7.01691 9.72636 7.12023 9.66092 7.23216C9.59721 7.34237 9.54727 7.46291 9.51455 7.58861C9.48183 7.71088 9.46289 7.8383 9.46289 7.9709C9.46289 8.10349 9.48183 8.23092 9.51455 8.35318C9.54899 8.47889 9.59721 8.59943 9.66092 8.70964C9.72636 8.82157 9.80385 8.92489 9.89511 9.01615C9.98638 9.10742 10.0897 9.18491 10.2016 9.25034L10.2206 9.26068L10.2585 9.28134L12.4178 10.4368V7.97606C12.4178 7.97606 12.4178 7.97262 12.4178 7.9709C12.4178 7.8383 12.3989 7.71088 12.3662 7.58861Z" fill="#0077C8"/>
</svg>
