<svg width="91" height="20" viewBox="0 0 91 20" fill="none" xmlns="http://www.w3.org/2000/svg">
<path fill-rule="evenodd" clip-rule="evenodd" d="M63.9872 8.88246C64.7535 8.88246 65.3764 9.08883 65.8465 9.47672C66.2745 9.82832 66.5879 10.3404 66.7637 11.0111H61.2701C61.4439 10.3385 61.7439 9.8264 62.1605 9.47481C62.6153 9.08883 63.221 8.88246 63.9892 8.88246H63.9872ZM61.2834 13.9633H70.9828L71 13.8181C71.0592 13.329 71.0898 12.8837 71.0898 12.4958C71.0898 8.33596 68.149 5.34551 63.9872 5.34551C59.8255 5.34551 56.8847 8.36462 56.8847 12.4958C56.8847 16.627 59.8255 19.6462 63.9872 19.6462C67.2777 19.6462 69.9624 17.8557 70.6751 15.2188L70.7134 15.0793H66.3108L66.3013 15.0984C66.156 15.3754 65.8675 15.6181 65.4605 15.792C65.0554 15.964 64.549 16.0633 63.9892 16.0633C63.2611 16.0633 62.6535 15.8532 62.1892 15.4691C61.7669 15.1194 61.4554 14.6149 61.2853 13.9653L61.2834 13.9633ZM34.1076 14.9379C33.5535 15.5283 32.8255 15.8245 31.9197 15.8245C31.3484 15.8245 30.8306 15.6869 30.3701 15.4098C29.9076 15.1328 29.5484 14.7544 29.2904 14.2748C29.0325 13.7952 28.9025 13.2506 28.9025 12.6411C28.9025 12.0315 29.0325 11.4602 29.2904 10.9805C29.5675 10.5009 29.9267 10.1321 30.3701 9.87226C30.8325 9.59519 31.358 9.45761 31.9484 9.45761C32.5388 9.45761 33.0567 9.59519 33.4981 9.87226C33.9605 10.1302 34.3102 10.499 34.5509 10.9805C34.8089 11.4602 34.9388 12.0143 34.9388 12.6411C34.9388 13.564 34.6618 14.3302 34.1076 14.9398V14.9379ZM27.9127 18.7309C28.8911 19.3404 29.9994 19.6442 31.2357 19.6442C32.1395 19.6442 32.9611 19.4684 33.7006 19.1188C34.1841 18.8895 34.6064 18.6028 34.9618 18.2627V19.6462H39.372V5.63405H34.9618V7.04424C34.593 6.68883 34.1631 6.39456 33.672 6.16144C32.9516 5.80984 32.1395 5.63596 31.2357 5.63596C29.9994 5.63596 28.8911 5.93978 27.9127 6.54933C26.9535 7.15889 26.1873 7.9901 25.614 9.04105C25.0599 10.0939 24.7828 11.2939 24.7828 12.6411C24.7828 13.9882 25.0599 15.1882 25.614 16.2411C26.1853 17.2939 26.9516 18.1232 27.9127 18.7328V18.7309ZM0.5 5.63405V19.6442H4.91019V11.4563C4.91019 10.9767 5.00573 10.5716 5.19873 10.2449C5.41083 9.91812 5.6879 9.66781 6.03567 9.49583C6.38153 9.30284 6.77516 9.2073 7.21847 9.2073C7.85286 9.2073 8.38216 9.40984 8.80446 9.81303C9.24586 10.1971 9.46751 10.7455 9.46751 11.4563V19.6442H13.8777V11.4563C13.8777 10.9767 13.9732 10.5716 14.1662 10.2449C14.3783 9.91812 14.6554 9.66781 15.0032 9.49583C15.349 9.30284 15.7427 9.2073 16.186 9.2073C16.8204 9.2073 17.3497 9.40984 17.772 9.81303C18.2134 10.1971 18.435 10.7455 18.435 11.4563V19.6442H22.8452V10.9672C22.8452 9.79392 22.5949 8.79456 22.0962 7.96908C21.6166 7.12258 20.9535 6.48054 20.107 6.03723C19.2815 5.57672 18.3299 5.34551 17.2522 5.34551C16.1745 5.34551 15.1675 5.58628 14.2828 6.0659C13.7096 6.37163 13.207 6.76717 12.7771 7.25061C12.3758 6.74424 11.8885 6.32959 11.3134 6.00857C10.5452 5.56717 9.67006 5.34551 8.68981 5.34551C7.65223 5.34551 6.71974 5.56717 5.89427 6.00857C5.53503 6.19201 5.20828 6.41367 4.91401 6.66972V5.63405H0.5ZM46.4611 0.0869141H42.0643V19.6442H46.4611V12.8876L51.9892 19.6442H56.8847L51.1541 12.6391L56.8847 5.63405H51.9892L46.4611 12.3907V0.0869141Z" fill="#131313"/>
<path fill-rule="evenodd" clip-rule="evenodd" d="M83.0375 12.639L83.6547 9.13644H80.9872L80.37 12.639H83.0375ZM75.5795 19.6441L76.1967 16.1415H73.084L73.7012 12.639H76.8139L77.4311 9.13644H74.3203L74.9375 5.6339H78.0483L78.6655 2.13135H82.2216L81.6044 5.6339H84.2719L84.8891 2.13135H88.4451L87.8279 5.6339H90.4974L89.8802 9.13644H87.2107L86.5935 12.639H89.2611L88.6439 16.1415H85.9763L85.3591 19.6441H81.8031L82.4203 16.1415H79.7528L79.1356 19.6441H75.5795Z" fill="#227AFF"/>
</svg>
