<svg width="101" height="25" viewBox="0 0 101 25" fill="none" xmlns="http://www.w3.org/2000/svg">
<path d="M100.095 5.88988V5.88371C99.9639 5.56934 99.7728 5.28271 99.5139 5.02843C98.9915 4.50448 98.3443 4.2425 97.5722 4.2425C95.9464 4.2425 94.5718 4.80036 93.4484 5.91762C92.9984 6.36144 92.6439 6.85149 92.3758 7.37699C92.1354 6.55715 91.5097 5.84981 90.4818 5.25651C89.3245 4.57999 88.1318 4.24404 86.9051 4.24404C85.0312 4.24404 83.4593 4.87741 82.1895 6.14569C81.4128 6.92546 80.8734 7.81927 80.5729 8.82865V7.08573C80.5729 7.0472 80.5791 7.01176 80.5791 6.97323C80.5791 6.92854 80.5745 6.88693 80.5729 6.8407V6.67735L80.5668 6.68352C80.5082 6.02703 80.2493 5.47071 79.7932 5.02073C79.2677 4.50294 78.6143 4.24404 77.8283 4.24404C76.4352 4.24404 75.5676 4.85584 75.2224 6.08405V2.77388C75.2224 1.98641 74.9604 1.333 74.438 0.81059C73.9141 0.286634 73.2607 0.0246567 72.4732 0.0246567C71.6857 0.0246567 71.0354 0.288176 70.5176 0.81059C70.0029 1.333 69.744 1.98641 69.744 2.77388V5.0762C69.7163 5.04538 69.6885 5.01456 69.6592 4.98528C69.1368 4.46133 68.4834 4.20089 67.6959 4.20089C65.8236 4.20089 64.2486 4.83734 62.9834 6.11179C62.2345 6.86536 61.7105 7.7268 61.4054 8.68842C61.0956 7.7453 60.5763 6.89772 59.8304 6.15186C58.5545 4.87741 56.9795 4.24096 55.1071 4.24096C53.2348 4.24096 51.6614 4.87433 50.3946 6.14261C50.0294 6.5063 49.7243 6.9008 49.4623 7.31535C49.4238 6.98402 49.3637 6.69276 49.2959 6.44311C49.2388 6.11949 49.1263 5.82361 48.9645 5.55085C48.9522 5.52927 48.9445 5.5154 48.9445 5.5154V5.52003C48.8366 5.34435 48.7072 5.17791 48.5546 5.02535C48.0307 4.5014 47.3819 4.23942 46.6098 4.23942C45.4016 4.23942 44.3352 4.54917 43.4029 5.16559C43.839 3.53978 43.295 2.01569 43.295 2.01569C43.181 1.54105 42.9452 1.1265 42.5908 0.776687C42.0683 0.258896 41.4119 0 40.6275 0H29.441C28.6566 0 28.0001 0.258896 27.4762 0.776687C27.1495 1.10031 26.9245 1.47324 26.8027 1.90165V1.90781C26.7981 1.92323 26.7812 1.98949 26.7565 2.09428C26.7503 2.1251 26.7426 2.15592 26.738 2.1852C26.567 3.0112 26.1817 5.43527 27.3005 6.5664H27.302C27.3575 6.63574 27.4145 6.69893 27.4762 6.76057C28.0001 7.28606 28.6551 7.54804 29.441 7.54804H34.5342V16.7866C34.5342 17.5741 34.8301 18.2244 35.354 18.7422C35.8764 19.2584 36.5298 19.5173 37.3173 19.5173C38.1048 19.5173 38.7536 19.2584 39.2713 18.7422C39.7876 18.2244 40.2391 17.5741 40.2391 16.7866V7.54804H40.6275C40.891 7.54958 41.1406 7.51568 41.3764 7.45866C40.9973 8.23073 40.8016 9.08755 40.8016 10.0291V16.7897C40.8016 17.5772 41.0605 18.2275 41.5783 18.7453C42.0945 19.2615 42.7449 19.5204 43.5308 19.5204C44.3167 19.5204 44.9717 19.2615 45.4956 18.7453C46.0196 18.2275 46.2816 17.5772 46.2816 16.7897V12.0988C46.2816 11.9046 46.4172 11.8044 46.693 11.789C47.3819 11.7274 47.9567 11.5116 48.4175 11.1402C48.3234 12.4424 48.3604 14.1329 48.9491 15.4675V15.4644C49.2681 16.2719 49.7474 17.0008 50.3946 17.6511C51.6629 18.9271 53.2332 19.5651 55.1071 19.5651C55.8915 19.5651 56.548 19.3016 57.072 18.7776C57.5805 19.2723 58.2216 19.522 58.9952 19.522C59.7688 19.522 60.416 19.2631 60.9477 18.7468C61.4794 18.229 61.7444 17.5787 61.7444 16.7912V15.8712C62.0542 16.5 62.4672 17.0794 62.9958 17.608C64.2717 18.884 65.8374 19.5204 67.6975 19.5204C68.4695 19.5204 69.1214 19.2615 69.6515 18.7453C69.8287 18.5711 69.9721 18.3831 70.0907 18.1813C70.2048 18.3831 70.3481 18.5711 70.5176 18.7453C71.0354 19.2615 71.6857 19.5204 72.4732 19.5204C73.2607 19.5204 73.9141 19.2615 74.438 18.7453C74.9604 18.2275 75.2224 17.5772 75.2224 16.7897V15.5091C75.4459 15.5091 75.5553 15.6123 75.5553 15.8173V18.2568C75.5553 19.9119 76.1224 21.2942 77.2597 22.4037C78.397 23.5133 79.7931 24.0665 81.4467 24.0665C82.2295 24.0665 82.8537 23.7737 83.4085 23.2898C83.8954 22.8676 84.8863 21.1848 84.1343 18.6559C84.9803 19.1382 85.8233 19.5605 86.9035 19.5605H88.7436C89.5279 19.5605 90.1983 19.3139 90.6976 18.773C91.0166 18.4247 91.2154 18.1119 91.4404 17.2582C91.5976 16.3736 91.6083 14.8079 91.3757 13.9757V13.968C91.277 13.5997 91.1014 13.2622 90.8517 12.9633C91.1275 12.6751 91.3217 12.4732 91.4327 12.3623C91.5544 12.2667 91.6623 12.1619 91.764 12.0556V16.7866C91.764 17.5741 92.0229 18.2244 92.5391 18.7422C93.0554 19.2584 93.7057 19.5173 94.4917 19.5173C95.2776 19.5173 95.9325 19.2584 96.4565 18.7422C96.982 18.2244 97.244 17.5741 97.244 16.7866V12.0957C97.244 11.9015 97.3811 11.8013 97.657 11.7859C98.3936 11.7982 99.1502 11.3745 99.5786 10.9599C100.781 9.6978 100.656 7.29069 100.098 5.88834L100.095 5.88988ZM41.6415 3.74628C41.378 4.00826 41.0405 4.13925 40.629 4.13925H38.7058V14.7247C38.7058 15.1362 38.5779 15.4721 38.3221 15.7264C38.0662 15.9806 37.7318 16.1086 37.3204 16.1086C36.9089 16.1086 36.5699 15.9822 36.3079 15.7264C36.0459 15.4706 35.9149 15.1346 35.9149 14.7247V4.13925H29.4441C29.0311 4.13925 28.6936 4.0098 28.4316 3.74628C28.1696 3.4843 28.0387 3.14682 28.0387 2.73382C28.0387 2.32082 28.1696 1.98487 28.4316 1.73059C28.6936 1.47632 29.0311 1.34996 29.4441 1.34996H40.6305C41.0435 1.34996 41.381 1.47632 41.643 1.73059C41.905 1.98487 42.036 2.32236 42.036 2.73382C42.036 3.14527 41.905 3.48585 41.643 3.74628H41.6415ZM46.5697 8.37713C46.1028 8.41873 45.7129 8.58825 45.4016 8.88413C45.0934 9.18001 44.9378 9.56219 44.9378 10.0291V14.7232C44.9378 15.1346 44.8083 15.4706 44.5448 15.7248C44.2828 15.9791 43.9453 16.107 43.5323 16.107C43.1193 16.107 42.7834 15.9806 42.5307 15.7248C42.2748 15.469 42.1485 15.1331 42.1485 14.7232V10.0291C42.1485 8.76239 42.5769 7.70523 43.4291 6.85765C44.2844 6.00854 45.3461 5.58321 46.6129 5.58321C47.0136 5.58321 47.3464 5.71574 47.6069 5.97772C47.8673 6.24124 47.9983 6.57102 47.9983 6.97015C47.9983 7.82389 47.5221 8.29391 46.5713 8.37558L46.5697 8.37713ZM60.4022 14.7247C60.4022 15.1362 60.2696 15.4721 60.0077 15.7264C59.7457 15.9806 59.4082 16.1086 58.9967 16.1086C58.5853 16.1086 58.2478 15.9822 57.9935 15.7264C57.7377 15.4706 57.6098 15.1346 57.6098 14.7247V10.8582C57.6098 10.1694 57.3648 9.58376 56.8778 9.09988C56.3877 8.61907 55.7991 8.37713 55.1087 8.37713C54.4183 8.37713 53.8342 8.61907 53.3519 9.09988C52.8695 9.58376 52.6276 10.1694 52.6276 10.8582C52.6276 11.5471 52.8695 12.1373 53.3519 12.6273C53.8342 13.1158 54.4198 13.3609 55.1087 13.3609C55.5232 13.3609 55.8607 13.4872 56.1227 13.743C56.3816 13.9989 56.5157 14.3333 56.5157 14.7447C56.5157 15.1562 56.3831 15.4968 56.1227 15.7572C55.8592 16.0207 55.5217 16.1517 55.1087 16.1517C53.6062 16.1517 52.3533 15.6432 51.347 14.6307C50.3407 13.6182 49.8383 12.3607 49.8383 10.8582C49.8383 9.35569 50.3407 8.09974 51.347 7.09498C52.3517 6.09021 53.6062 5.58321 55.1087 5.58321C56.6112 5.58321 57.8687 6.08867 58.8812 7.09498C59.8952 8.09974 60.4022 9.35415 60.4022 10.8582V14.7247ZM65.9422 12.595C66.423 13.0758 67.0102 13.3193 67.699 13.3193C68.112 13.3193 68.4511 13.4487 68.7115 13.7122C68.9735 13.9742 69.1045 14.3102 69.1045 14.7247C69.1045 15.1392 68.9735 15.4721 68.7115 15.7264C68.4495 15.9806 68.1105 16.1086 67.699 16.1086C66.2104 16.1086 64.959 15.6015 63.9481 14.5891C62.9341 13.5782 62.4286 12.3253 62.4286 10.8382C62.4286 9.35107 62.931 8.07816 63.9358 7.06415C64.9406 6.05015 66.1965 5.54468 67.699 5.54468C68.112 5.54468 68.4511 5.67567 68.7115 5.93765C68.9735 6.20117 69.1045 6.53866 69.1045 6.95166C69.1045 7.36466 68.9735 7.69907 68.7115 7.9518C68.4495 8.20761 68.1105 8.33552 67.699 8.33552C67.0102 8.33552 66.423 8.58054 65.9422 9.06906C65.4614 9.55911 65.2179 10.1478 65.2179 10.8382C65.2179 11.5286 65.4614 12.1126 65.9422 12.595ZM82.4622 20.2755C82.1987 20.5298 81.8612 20.6577 81.4498 20.6577H81.3666C80.0983 20.6577 79.0365 20.2293 78.1828 19.3756C77.329 18.5218 76.9006 17.46 76.9006 16.1918V13.7523C76.9006 13.2854 76.7403 12.8924 76.4136 12.5749C76.09 12.259 75.694 12.1003 75.2255 12.1003H73.8832V14.7262C73.8832 15.1377 73.7523 15.4736 73.4903 15.7279C73.2283 15.9822 72.8908 16.1101 72.4778 16.1101C72.0648 16.1101 71.7304 15.9837 71.4761 15.7279C71.2203 15.4721 71.0924 15.1362 71.0924 14.7262V2.77388C71.0924 2.35934 71.2203 2.02185 71.4761 1.76142C71.7319 1.49944 72.0648 1.36845 72.4778 1.36845C72.8908 1.36845 73.2298 1.49944 73.4903 1.76142C73.7523 2.02339 73.8832 2.36088 73.8832 2.77388V8.62523L74.7724 8.64527C75.227 8.65914 75.62 8.50503 75.9513 8.18141C76.2811 7.85779 76.446 7.46791 76.446 7.0133C76.446 6.06247 76.9083 5.58475 77.8314 5.58475C78.2444 5.58475 78.5834 5.7142 78.8439 5.97001C79.1058 6.22428 79.2368 6.55869 79.2368 6.97169C79.2368 8.2261 78.7822 9.29405 77.873 10.1755C79.0858 11.0724 79.693 12.2636 79.693 13.7523V16.1918C79.693 16.6602 79.8548 17.0563 80.1784 17.3799C80.5005 17.7035 80.8981 17.8653 81.3666 17.8653H81.4498C81.7318 17.8653 81.9753 17.9316 82.1879 18.0564C82.2434 18.1011 82.2989 18.1397 82.3575 18.172C82.3929 18.2013 82.4299 18.2259 82.4622 18.2568C82.7227 18.5203 82.8537 18.8578 82.8537 19.2692C82.8537 19.6807 82.7242 20.0182 82.4622 20.2725V20.2755ZM90.545 9.28788L87.8975 11.8707C87.5955 12.1589 87.2703 12.3053 86.9267 12.3053C86.5398 12.3053 86.2055 12.1604 85.9234 11.8707C85.6414 11.581 85.4997 11.2419 85.4997 10.8582C85.4997 10.5146 85.6491 10.1909 85.9543 9.88427L87.4429 8.41719C87.2641 8.39099 87.0869 8.37558 86.9066 8.37558C86.2147 8.37558 85.6306 8.61753 85.1498 9.09834C84.6659 9.58222 84.424 10.1678 84.424 10.8567C84.424 11.5455 84.6659 12.1357 85.1498 12.6258C85.6306 13.1143 86.2147 13.3593 86.9066 13.3593H88.7466C89.1596 13.3593 89.4956 13.4857 89.7499 13.7415C90.0041 13.9973 90.1305 14.3317 90.1305 14.7432C90.1305 15.1546 90.0041 15.4952 89.7499 15.7557C89.494 16.0192 89.1581 16.1502 88.7466 16.1502H86.9066C85.4041 16.1502 84.1497 15.6416 83.1434 14.6291C82.1371 13.6167 81.6347 12.3592 81.6347 10.8567C81.6347 9.35415 82.1371 8.0982 83.1434 7.09343C84.1481 6.08867 85.4026 5.58167 86.9066 5.58167C88.4107 5.58167 89.6836 6.12103 90.73 7.19668C91.0058 7.48486 91.143 7.80386 91.143 8.14905C91.143 8.60058 90.9442 8.98122 90.545 9.28634V9.28788ZM97.5321 8.37713C97.0621 8.41873 96.6738 8.58825 96.364 8.88413C96.0527 9.18001 95.9002 9.56219 95.9002 10.0291V14.7232C95.9002 15.1346 95.7692 15.4706 95.5072 15.7248C95.2452 15.9791 94.9062 16.107 94.4932 16.107C94.0802 16.107 93.7458 15.9806 93.4915 15.7248C93.2372 15.469 93.1093 15.1331 93.1093 14.7232V10.0291C93.1093 8.76239 93.5362 7.70523 94.3915 6.85765C95.2468 6.00854 96.3055 5.58321 97.5753 5.58321C97.976 5.58321 98.3057 5.71574 98.5662 5.97772C98.8282 6.24124 98.9591 6.57102 98.9591 6.97015C98.9591 7.82389 98.4845 8.29391 97.5337 8.37558L97.5321 8.37713Z" fill="black"/>
<path d="M55.1122 5.58398C53.6097 5.58398 52.3568 6.08945 51.3505 7.09575C50.3442 8.10051 49.8418 9.35492 49.8418 10.859C49.8418 12.363 50.3442 13.6175 51.3505 14.6315C52.3552 15.6439 53.6097 16.1525 55.1122 16.1525C55.5267 16.1525 55.8642 16.0215 56.1262 15.758C56.3851 15.496 56.5192 15.157 56.5192 14.7455C56.5192 14.334 56.3866 13.9981 56.1262 13.7438C55.8627 13.488 55.5252 13.3616 55.1122 13.3616C54.4233 13.3616 53.8377 13.1166 53.3554 12.6281C52.873 12.1381 52.6311 11.5478 52.6311 10.859C52.6311 10.1701 52.873 9.58454 53.3554 9.10065C53.8377 8.61985 54.4233 8.3779 55.1122 8.3779C55.801 8.3779 56.3912 8.61985 56.8813 9.10065C57.3683 9.58454 57.6133 10.1701 57.6133 10.859V14.7255C57.6133 15.1369 57.7412 15.4729 57.997 15.7272C58.2513 15.9814 58.5857 16.1093 59.0002 16.1093C59.4148 16.1093 59.7507 15.983 60.0112 15.7272C60.2731 15.4713 60.4057 15.1354 60.4057 14.7255V10.859C60.4057 9.35492 59.8987 8.10051 58.8847 7.09575C57.8737 6.09099 56.6147 5.58398 55.1122 5.58398Z" fill="#DE629A"/>
<path d="M82.3568 18.1717C82.2983 18.1378 82.2428 18.0993 82.1873 18.0562C81.9747 17.9313 81.7327 17.8651 81.4492 17.8651H81.366C80.8975 17.8651 80.4999 17.7033 80.1778 17.3796C79.8542 17.056 79.6924 16.66 79.6924 16.1915V13.752C79.6924 12.2634 79.0852 11.0721 77.8724 10.1752C78.7816 9.29376 79.2362 8.22582 79.2362 6.97141C79.2362 6.55841 79.1052 6.224 78.8433 5.96973C78.5813 5.71391 78.2423 5.58447 77.8308 5.58447C76.9062 5.58447 76.4454 6.06219 76.4454 7.01302C76.4454 7.46762 76.2805 7.85751 75.9507 8.18113C75.6194 8.50475 75.2249 8.65885 74.7718 8.64498L73.8826 8.62495V2.7736C73.8826 2.35906 73.7516 2.02157 73.4897 1.76113C73.2277 1.49915 72.8902 1.36816 72.4772 1.36816C72.0642 1.36816 71.7298 1.49915 71.4755 1.76113C71.2197 2.02311 71.0918 2.3606 71.0918 2.7736V14.7244C71.0918 15.1359 71.2197 15.4718 71.4755 15.7261C71.7313 15.9804 72.0642 16.1083 72.4772 16.1083C72.8902 16.1083 73.2292 15.9819 73.4897 15.7261C73.7516 15.4703 73.8826 15.1343 73.8826 14.7244V12.0985H75.2249C75.6934 12.0985 76.0894 12.2572 76.413 12.5731C76.7397 12.8906 76.9 13.2835 76.9 13.7505V16.1899C76.9 17.4582 77.3284 18.52 78.1821 19.3737C79.0359 20.2275 80.0977 20.6559 81.366 20.6559H81.4492C81.8622 20.6559 82.1981 20.528 82.4616 20.2737C82.7221 20.0179 82.8531 19.6835 82.8531 19.2705C82.8531 18.8575 82.7236 18.52 82.4616 18.258C82.4277 18.2257 82.3907 18.201 82.3568 18.1733V18.1717Z" fill="#DE629A"/>
<path d="M46.6148 5.58398C45.3481 5.58398 44.2863 6.00931 43.431 6.85843C42.5788 7.70601 42.1504 8.76316 42.1504 10.0299V14.7239C42.1504 15.1354 42.2768 15.4713 42.5326 15.7256C42.7868 15.9799 43.1228 16.1078 43.5342 16.1078C43.9457 16.1078 44.2863 15.9814 44.5467 15.7256C44.8087 15.4698 44.9397 15.1338 44.9397 14.7239V10.0299C44.9397 9.56297 45.0953 9.18079 45.4035 8.88491C45.7148 8.58902 46.1047 8.41951 46.5717 8.3779C47.5225 8.29623 47.9987 7.82621 47.9987 6.97247C47.9987 6.5718 47.8692 6.24201 47.6072 5.98003C47.3453 5.71806 47.0124 5.58553 46.6133 5.58553L46.6148 5.58398Z" fill="#DE629A"/>
<path d="M67.704 8.33527C68.117 8.33527 68.456 8.2089 68.7164 7.95155C68.9784 7.69727 69.1094 7.36287 69.1094 6.95141C69.1094 6.53995 68.9784 6.20092 68.7164 5.9374C68.4545 5.67542 68.1154 5.54443 67.704 5.54443C66.2015 5.54443 64.947 6.0499 63.9407 7.0639C62.936 8.07637 62.4336 9.33386 62.4336 10.8379C62.4336 12.342 62.9391 13.5779 63.9531 14.5888C64.964 15.6013 66.2153 16.1083 67.704 16.1083C68.117 16.1083 68.456 15.9819 68.7164 15.7261C68.9784 15.4703 69.1094 15.1344 69.1094 14.7244C69.1094 14.3145 68.9784 13.9724 68.7164 13.712C68.4545 13.45 68.1154 13.319 67.704 13.319C67.0151 13.319 66.428 13.0755 65.9472 12.5947C65.4664 12.1124 65.2229 11.5268 65.2229 10.8379C65.2229 10.1491 65.4664 9.55886 65.9472 9.06881C66.428 8.58029 67.0151 8.33527 67.704 8.33527Z" fill="#DE629A"/>
<path d="M97.5773 5.58398C96.3075 5.58398 95.2488 6.00931 94.3935 6.85843C93.5382 7.70601 93.1113 8.76316 93.1113 10.0299V14.7239C93.1113 15.1354 93.2377 15.4713 93.4935 15.7256C93.7493 15.9799 94.0837 16.1078 94.4952 16.1078C94.9066 16.1078 95.2488 15.9814 95.5092 15.7256C95.7712 15.4698 95.9022 15.1338 95.9022 14.7239V10.0299C95.9022 9.56297 96.0547 9.18079 96.366 8.88491C96.6758 8.58902 97.0641 8.41951 97.5341 8.3779C98.485 8.29623 98.9596 7.82621 98.9596 6.97247C98.9596 6.5718 98.8286 6.24201 98.5666 5.98003C98.3062 5.71806 97.9749 5.58553 97.5757 5.58553L97.5773 5.58398Z" fill="#DE629A"/>
<path d="M86.9106 5.58398C85.4081 5.58398 84.1537 6.08945 83.1474 7.09575C82.141 8.10051 81.6387 9.35492 81.6387 10.859C81.6387 12.363 82.141 13.6175 83.1474 14.6315C84.1521 15.6439 85.4065 16.1525 86.9106 16.1525H88.7506C89.1636 16.1525 89.4996 16.0215 89.7538 15.758C90.0081 15.496 90.1345 15.157 90.1345 14.7455C90.1345 14.334 90.0081 13.9981 89.7538 13.7438C89.498 13.488 89.1621 13.3616 88.7506 13.3616H86.9106C86.2187 13.3616 85.6346 13.1166 85.1538 12.6281C84.6699 12.1381 84.428 11.5478 84.428 10.859C84.428 10.1701 84.6699 9.58454 85.1538 9.10065C85.6346 8.61984 86.2187 8.3779 86.9106 8.3779C87.0909 8.3779 87.2681 8.39331 87.4469 8.41951L85.9582 9.88658C85.6531 10.1917 85.5036 10.5153 85.5036 10.8605C85.5036 11.2458 85.6439 11.5833 85.9274 11.873C86.2094 12.1612 86.5438 12.3076 86.9306 12.3076C87.2743 12.3076 87.5994 12.1627 87.9015 11.873L90.549 9.2902C90.9481 8.98661 91.1469 8.60598 91.1469 8.15291C91.1469 7.80771 91.0113 7.49026 90.7339 7.20054C89.6876 6.12489 88.41 5.58553 86.9106 5.58553V5.58398Z" fill="#DE629A"/>
<path d="M40.6349 1.34863H29.4484C29.0354 1.34863 28.6979 1.475 28.4359 1.72927C28.174 1.98354 28.043 2.32103 28.043 2.73249C28.043 3.14395 28.174 3.48452 28.4359 3.74496C28.6979 4.00694 29.0354 4.13793 29.4484 4.13793H35.9193V14.7249C35.9193 15.1364 36.0502 15.4723 36.3122 15.7266C36.5742 15.9809 36.9117 16.1088 37.3247 16.1088C37.7377 16.1088 38.0721 15.9824 38.3264 15.7266C38.5822 15.4708 38.7101 15.1348 38.7101 14.7249V4.13947H40.6333C41.0463 4.13947 41.3838 4.01002 41.6458 3.7465C41.9078 3.48452 42.0387 3.14703 42.0387 2.73403C42.0387 2.32103 41.9078 1.98508 41.6458 1.73081C41.3823 1.47654 41.0448 1.35017 40.6333 1.35017L40.6349 1.34863Z" fill="#DE629A"/>
<path d="M25.5817 10.3529C24.7387 10.2743 23.3194 10.3159 22.3285 11.9972L22.102 12.5442L22.0404 12.3008C21.9017 11.9679 21.4517 10.8029 20.4592 10.5239C20.4592 10.5239 18.0383 9.77498 16.7946 11.672C16.4895 12.1389 16.3077 12.6336 16.2075 13.1144V11.4932V11.4886C16.2075 11.4732 16.2075 11.4563 16.2075 11.4439V11.2205L16.1859 11.2236C16.1274 10.866 15.927 10.4638 15.3276 10.4777C14.5709 10.4931 14.4784 11.3576 14.4784 11.3576V11.6088V15.6202C14.443 15.7943 14.2704 16.4955 13.7511 16.4585C13.1547 16.4153 12.5275 16.5879 12.4982 15.6448C12.4674 14.7002 12.455 14.2671 12.455 14.2671C12.455 14.2671 12.4427 13.549 11.6198 13.4396C10.7953 13.3286 10.7661 14.3303 10.7522 14.902C10.7414 15.4753 10.7383 16.5186 9.80753 16.4754C8.8752 16.4323 8.73342 16.289 8.72572 14.902C8.71647 13.5136 8.71647 13.2855 8.71647 13.2855C8.71647 13.2855 8.53154 11.6258 7.01978 10.9955C5.50955 10.3683 4.54794 10.2866 3.03001 10.413C3.03001 10.413 0.863297 10.4669 0.562793 12.4549C0.265371 14.4428 2.11771 15.0639 2.81734 15.0962C3.51698 15.1286 5.15665 15.0993 4.72208 15.9376C4.28904 16.7729 2.45058 16.4585 2.07456 15.9376C1.697 15.4152 1.12373 15.6371 0.917234 15.8128C0.709193 15.9885 0.182155 16.4385 0.767753 17.0919C1.35335 17.7468 2.67094 18.4927 4.42774 18.0211C6.18145 17.548 6.70078 16.3784 6.43572 15.238C6.16758 14.1007 5.06573 13.4458 3.67571 13.3995C2.28568 13.3564 2.14699 13.0697 2.27952 12.6198C2.41513 12.1682 3.08703 11.9586 4.19966 11.9679C5.3123 11.9741 7.02132 12.5843 7.02132 13.7879C7.02132 14.9914 6.89649 16.6527 7.65006 17.3153C8.40518 17.978 9.88612 18.8702 11.6183 17.5002C11.6183 17.5002 12.4874 18.3309 13.6632 18.2122C14.819 18.0951 16.1798 17.34 16.2137 15.7835V15.7804C16.2137 15.7604 16.2198 15.7404 16.2198 15.7173L16.2137 15.7034V15.2257C16.3077 15.728 16.4325 16.0979 16.4818 16.2073C17.2939 18.1074 19.2372 18.3047 20.9308 18.0088C22.6198 17.7129 22.2438 16.4939 22.2438 16.4939C22.2438 16.4939 22.0573 15.6017 20.9216 16.1503C19.7843 16.6989 18.1292 16.4446 17.8903 15.0762L21.5611 15.0669C21.5611 15.0669 21.7291 15.0407 21.8893 14.9575C22.0434 15.6525 22.5319 17.4972 24.2718 18.0026C26.1318 18.5435 27.4479 17.8701 27.8794 17.3554C28.3109 16.8422 27.9379 15.8328 27.2784 15.9361C26.6188 16.0393 26.232 16.5648 25.0701 16.346C23.9096 16.1272 23.6523 15.0777 23.6523 15.0777H27.0626C27.0626 15.0777 27.9549 15.3567 28.0535 13.9065C28.1167 12.9757 27.7176 12.1312 27.7176 12.1312C26.9748 10.5347 25.5832 10.356 25.5832 10.356L25.5817 10.3529ZM17.8318 13.4411C17.8318 13.4411 17.9936 12.1667 19.2326 12.1713C20.4747 12.1775 20.5055 13.4411 20.5055 13.4411H17.8318ZM23.7263 13.4642C23.7263 13.4642 24.0406 12.2607 25.1271 12.1929C26.215 12.1266 26.4 13.4642 26.4 13.4642H23.7263ZM30.1308 8.5406C30.3928 8.5406 30.6086 8.62844 30.7843 8.80104C30.9568 8.97518 31.0339 9.18168 31.0123 9.419V10.6318H32.088C32.4363 10.6318 32.6951 10.7813 32.8708 11.0864C33.045 11.3468 33.045 11.6289 32.8708 11.9309C32.6967 12.2345 32.4363 12.3763 32.088 12.3547H31.0123V15.7388C31.0123 16.064 31.0678 16.2813 31.1757 16.3892C31.2404 16.4785 31.3467 16.5309 31.5008 16.5525C31.6734 16.6188 31.8923 16.6064 32.1527 16.5186C32.4979 16.4092 32.803 16.4862 33.065 16.7467C33.2823 16.964 33.347 17.246 33.2607 17.5942C33.1713 17.9179 32.9664 18.1259 32.6397 18.2122L32.0202 18.3093C31.0647 18.374 30.3481 18.1136 29.8673 17.5264C29.4759 17.0703 29.2817 16.477 29.2817 15.7373V12.3532H28.7593C28.4126 12.3763 28.1614 12.2345 28.0104 11.9294C27.8378 11.6273 27.8378 11.3438 28.0104 11.0849C28.1614 10.7797 28.4126 10.6303 28.7593 10.6303H29.2817V9.41746C29.2817 9.07226 29.4328 8.7995 29.7379 8.60687C29.8658 8.56064 29.9983 8.53906 30.1278 8.53906L30.1308 8.5406Z" fill="#010000"/>
</svg>
