<svg width="81" height="25" viewBox="0 0 81 25" fill="none" xmlns="http://www.w3.org/2000/svg">
<path d="M78.292 4.89603C79.373 4.89603 80.2481 4.02095 80.2481 2.93996C80.2481 1.85897 79.373 0.983887 78.292 0.983887C77.211 0.983887 76.3359 1.85897 76.3359 2.93996C76.3359 4.02095 77.211 4.89603 78.292 4.89603Z" fill="#0092FF"/>
<path d="M80.2481 6.71143H76.3359V24.1242H80.2481V6.71143Z" fill="#0092FF"/>
<path d="M73.1297 6.81204C68.8291 6.62485 67.0836 7.2332 65.4551 8.48733V6.71143H61.543V24.1242H65.4551V16.1455C65.4551 15.0528 65.7289 13.4945 67.0392 12.2825C68.3635 11.0564 70.4576 10.5183 73.0969 10.7218L73.4573 10.7382V6.82842L73.1297 6.81204Z" fill="#0092FF"/>
<path d="M18.91 13.3687C17.96 9.08919 14.0829 5.98193 9.69347 5.98193C4.48739 5.98193 0.25 10.2146 0.25 15.4207C0.25 20.6267 4.48739 24.8548 9.69347 24.8548C13.3132 24.8548 16.6614 22.7396 18.2197 19.4662L18.3508 19.1924H13.7179L13.6618 19.2509C12.6089 20.3436 11.198 20.945 9.68879 20.945C6.64236 20.945 4.1645 18.4671 4.1645 15.4207C4.1645 12.3743 6.64236 9.89408 9.68879 9.89408C11.8859 9.89408 13.8841 11.2207 14.7568 13.2213H7.73037V17.1311H18.9802L19.0059 16.9696C19.0925 16.4525 19.1346 15.9308 19.1346 15.4207C19.1346 14.7351 19.0574 14.0449 18.9076 13.371L18.91 13.3687Z" fill="#0092FF"/>
<path d="M34.9729 8.15079C33.5971 7.24295 31.9476 6.70947 30.174 6.70947C28.4004 6.70947 26.7509 7.24061 25.375 8.15079V6.70947H21.4629V24.1246H25.375V15.4159C25.375 12.7672 27.5253 10.6193 30.174 10.6193C32.8227 10.6193 34.9729 12.7649 34.9729 15.4159V24.1223H38.8851V15.4159C38.8851 12.3811 37.3291 9.7091 34.9729 8.15079Z" fill="#0092FF"/>
<path d="M58.6351 15.4155V6.71143H54.7229V15.4178C54.7229 18.0665 52.5727 20.2144 49.924 20.2144C47.2753 20.2144 45.125 18.0688 45.125 15.4178V6.71143H41.2129V15.4155C41.2129 18.4502 42.7689 21.1222 45.125 22.6806C46.5009 23.5884 48.1504 24.1219 49.924 24.1219C51.6976 24.1219 53.3471 23.5907 54.7229 22.6806C57.0815 21.1222 58.6351 18.4502 58.6351 15.4155Z" fill="#0092FF"/>
</svg>
