<svg width="873" height="138" viewBox="0 0 873 138" fill="none" xmlns="http://www.w3.org/2000/svg">
<path d="M27.0376 16.4623C30.4207 14.4385 34.2568 13.4115 38.6065 13.4115C42.6541 13.4115 46.2184 14.2875 49.3297 16.0696C52.4107 17.8518 54.8271 20.5099 56.5187 24.0743H73.6757C71.1988 16.5529 66.8189 10.6325 60.5663 6.37348C54.3438 2.14463 47.034 0 38.7273 0C31.6289 0 25.195 1.63113 19.4861 4.86318C13.7469 8.09523 9.24625 12.6261 5.95379 18.3955C2.66133 24.1951 1 30.7498 1 38.0597C1 45.3695 2.66133 51.9243 5.95379 57.6936C9.24625 63.463 13.7772 67.9637 19.4861 71.1957C25.195 74.4278 31.6289 76.0589 38.7273 76.0589C47.1246 76.0589 54.4345 73.9445 60.6569 69.7156C66.8794 65.4868 71.229 59.5664 73.7361 51.9545H56.5791C54.8574 55.5188 52.4711 58.2071 49.3901 60.0195C46.309 61.8319 42.7145 62.738 38.6669 62.738C34.3172 62.738 30.4811 61.711 27.098 59.6872C23.7149 57.6634 21.087 54.7938 19.2142 51.0483C17.3415 47.3027 16.3749 42.9833 16.3749 38.0899C16.3749 33.1965 17.3113 28.7864 19.2142 25.0711C21.087 21.3859 23.7149 18.5163 27.098 16.4925L27.0376 16.4623Z" fill="white"/>
<path d="M127.124 19.1508C122.503 16.6134 117.337 15.375 111.659 15.375C105.98 15.375 100.815 16.6437 96.1933 19.1508C91.5717 21.6881 87.9168 25.2524 85.2587 29.8739C82.6005 34.4955 81.2715 39.8419 81.2715 45.8831C81.2715 51.9244 82.5703 57.2708 85.1681 61.8924C87.7658 66.5139 91.3301 70.0782 95.8912 72.6155C100.452 75.1528 105.557 76.3913 111.236 76.3913C116.915 76.3913 122.201 75.1226 126.852 72.6155C131.504 70.0782 135.219 66.5139 137.938 61.8924C140.687 57.2708 142.046 51.9546 142.046 45.8831C142.046 39.8117 140.717 34.4955 138.059 29.8739C135.401 25.2524 131.746 21.6881 127.124 19.1508ZM124.557 55.4585C123.137 58.0864 121.234 60.0498 118.848 61.3789C116.462 62.7079 113.924 63.3423 111.236 63.3423C106.977 63.3423 103.443 61.832 100.634 58.8113C97.8244 55.7907 96.4349 51.4713 96.4349 45.8529C96.4349 40.2346 97.8848 35.9151 100.754 32.8945C103.624 29.8739 107.218 28.3636 111.478 28.3636C115.737 28.3636 119.361 29.8739 122.291 32.8945C125.251 35.9151 126.732 40.2346 126.732 45.8529C126.732 49.6287 126.007 52.8305 124.587 55.4585H124.557Z" fill="white"/>
<path d="M182.317 15.4644C178.632 15.4644 175.218 16.1893 172.137 17.6392C169.056 19.0891 166.489 21.1129 164.525 23.6804V16.3101H149.604V75.3932H164.525V42.7707C164.525 38.0887 165.703 34.464 168.09 31.9569C170.476 29.4196 173.738 28.1811 177.846 28.1811C181.954 28.1811 185.096 29.4498 187.452 31.9569C189.808 34.4942 190.956 38.0887 190.956 42.7707V75.3932H205.877V40.7468C205.877 32.7724 203.703 26.5802 199.383 22.1399C195.033 17.6996 189.355 15.4644 182.317 15.4644Z" fill="white"/>
<rect x="70.9395" y="96.3913" width="65" height="41" rx="20.5" fill="black" fill-opacity="0.4"/>
<rect x="71.4395" y="96.8913" width="64" height="40" rx="20" stroke="white" stroke-opacity="0.5"/>
<path d="M101.019 111.302V114.478H102.793V115.58H101.019V118.683H99.7185V111.302H101.019ZM91.4084 113.588V112.539H94.4153V111.215H95.706V112.539H98.6984V113.588H91.4084ZM92.0755 116.31C92.0707 115 93.2696 114.12 95.0582 114.12C96.8227 114.12 98.0216 115 98.0265 116.31C98.0216 117.634 96.8227 118.5 95.0582 118.505C93.2696 118.5 92.0707 117.634 92.0755 116.31ZM93.1874 123.397V119.326H101.019V123.397H93.1874ZM93.3276 116.31C93.3179 117.064 94.014 117.518 95.0582 117.523C96.0928 117.518 96.7889 117.064 96.7986 116.31C96.7889 115.575 96.0928 115.111 95.0582 115.111C94.014 115.111 93.3179 115.575 93.3276 116.31ZM94.4636 122.343H99.733V120.361H94.4636V122.343ZM106.52 112.757C106.515 115.493 106.172 118.335 104.465 120.728L103.445 120.163C104.881 118.248 105.311 116.121 105.393 113.815H103.745V112.757H106.52ZM106.201 120.893C107.781 118.756 108.076 116.189 108.13 113.815H106.902V112.757H109.251C109.246 113.791 109.222 114.908 109.092 116.044H110.527V111.616H111.755V122.957H110.527V117.103H108.937C108.666 118.625 108.154 120.139 107.206 121.473L106.201 120.893ZM112.843 123.552V111.302H114.09V123.552H112.843Z" fill="white"/>
<path d="M237.8 47.4727H229.693V44.7555H237.8V36.6336H240.532V44.7555H248.669V47.4727H240.532V55.6095H237.8V47.4727Z" fill="white"/>
<path d="M305.59 15.0573C301.905 15.0573 298.492 15.7822 295.411 17.2321C292.33 18.682 289.762 20.7058 287.799 23.2734V15.903H272.877V74.9865H287.799V42.3637C287.799 37.6818 288.977 34.057 291.363 31.5499C293.749 29.0126 297.012 27.7741 301.12 27.7741C305.228 27.7741 308.369 29.0428 310.725 31.5499C313.081 34.0872 314.259 37.6818 314.259 42.3637V74.9865H329.181V40.3399C329.181 32.3655 327.006 26.1732 322.687 21.7328C318.337 17.2925 312.658 15.0573 305.62 15.0573H305.59Z" fill="white"/>
<path d="M381.447 18.5612C377.007 16.1447 371.962 14.9364 366.344 14.9364C360.726 14.9364 355.349 16.1749 350.878 18.682C346.408 21.1589 342.904 24.7232 340.427 29.3448C337.95 33.9664 336.682 39.3431 336.682 45.4448C336.682 51.5464 337.95 56.8325 340.457 61.4541C342.995 66.0757 346.499 69.64 351.03 72.1773C355.53 74.7147 360.635 75.9531 366.344 75.9531C373.382 75.9531 379.333 74.1105 384.166 70.4556C388.999 66.8006 392.261 62.1186 393.983 56.4398H377.883C375.527 61.2124 371.6 63.5987 366.042 63.5987C362.206 63.5987 358.974 62.3905 356.346 59.974C353.718 57.5575 352.208 54.2046 351.875 49.9455H395.07C395.342 48.2237 395.493 46.3207 395.493 44.1761C395.493 38.4067 394.254 33.3018 391.808 28.8615C389.361 24.4212 385.917 20.9777 381.477 18.5612H381.447ZM351.966 39.8868C352.54 35.8996 354.08 32.7883 356.618 30.5531C359.155 28.3178 362.266 27.2002 365.951 27.2002C369.848 27.2002 373.171 28.348 375.859 30.6739C378.547 32.9998 379.937 36.0506 380.027 39.8868H351.966Z" fill="white"/>
<path d="M432.144 27.6533C435.134 27.6533 437.641 28.3782 439.665 29.8281C441.689 31.278 443.139 33.3018 443.985 35.8392H460.085C458.453 29.224 455.221 24.0889 450.419 20.4339C445.616 16.779 439.544 14.9364 432.235 14.9364C426.556 14.9364 421.511 16.2051 417.101 18.7122C412.691 21.2495 409.248 24.7837 406.771 29.375C404.294 33.9664 403.025 39.3129 403.025 45.4146C403.025 51.5162 404.264 56.8929 406.771 61.4541C409.248 66.0454 412.691 69.6098 417.101 72.1169C421.511 74.6542 426.556 75.8927 432.235 75.8927C439.484 75.8927 445.525 74.0199 450.358 70.2441C455.191 66.4683 458.423 61.3937 460.054 54.9899H443.955C442.112 60.3969 438.155 63.0852 432.114 63.0852C427.855 63.0852 424.472 61.5447 421.995 58.4335C419.518 55.3524 418.249 50.9725 418.249 45.3541C418.249 39.7358 419.488 35.2652 421.995 32.1842C424.472 29.1032 427.855 27.5324 432.114 27.5324L432.144 27.6533Z" fill="white"/>
<path d="M482.654 0.437988H467.611V56.6519C467.611 68.8855 473.894 74.9871 486.49 74.9871H495.884V62.3911H488.937C486.671 62.3911 485.04 61.938 484.074 61.062C483.107 60.186 482.624 58.7361 482.624 56.7425V29.134H495.854V15.9036H482.624V0.437988H482.654Z" fill="white"/>
<rect x="339.881" y="95.9532" width="89" height="41" rx="20.5" fill="black" fill-opacity="0.4"/>
<rect x="340.381" y="96.4532" width="88" height="40" rx="20" stroke="white" stroke-opacity="0.5"/>
<path d="M370.545 119.894H369.25V116.723H366.199C365.909 117.071 365.548 117.341 365.116 117.535C364.688 117.728 364.222 117.825 363.719 117.825C363.11 117.825 362.561 117.693 362.071 117.428C361.584 117.164 361.202 116.797 360.925 116.326C360.648 115.856 360.511 115.324 360.514 114.731C360.511 114.138 360.648 113.606 360.925 113.136C361.202 112.662 361.584 112.293 362.071 112.028C362.561 111.761 363.11 111.626 363.719 111.622C364.219 111.626 364.683 111.724 365.112 111.917C365.54 112.111 365.901 112.38 366.194 112.725H369.25V110.873H370.545V119.894ZM361.747 114.731C361.747 115.111 361.831 115.45 361.998 115.746C362.166 116.043 362.4 116.273 362.699 116.437C362.999 116.598 363.339 116.679 363.719 116.679C364.087 116.679 364.419 116.597 364.715 116.432C365.012 116.268 365.244 116.039 365.411 115.746C365.582 115.45 365.667 115.111 365.667 114.731C365.667 114.354 365.582 114.019 365.411 113.725C365.244 113.429 365.012 113.198 364.715 113.034C364.419 112.866 364.087 112.781 363.719 112.778C363.339 112.781 362.999 112.865 362.699 113.029C362.4 113.194 362.166 113.424 361.998 113.72C361.831 114.014 361.747 114.351 361.747 114.731ZM362.593 118.966H363.888V121.799H370.869V122.862H362.593V118.966ZM366.77 113.783C366.863 114.099 366.91 114.415 366.91 114.731C366.91 115.05 366.865 115.359 366.775 115.659H369.25V113.783H366.77ZM382.645 117.1H381.349V115.925H378.236V114.915H381.349V113.58H378.4C378.023 114.521 377.384 115.309 376.481 115.944C375.582 116.579 374.446 117.055 373.073 117.37L372.619 116.307C374.072 115.985 375.198 115.496 375.998 114.842C376.797 114.188 377.25 113.405 377.356 112.493H373.266V111.434H378.792C378.792 111.83 378.758 112.207 378.69 112.565H381.349V110.863H382.645V117.1ZM374.634 117.612H382.645V120.72H375.949V121.948H383.012V122.997H374.659V119.744H381.344V118.651H374.634V117.612ZM394.077 115.828H396.04V116.906H394.077V123.113H392.791V110.863H394.077V115.828ZM384.467 112.783H387.488V111.023H388.784V112.783H391.723V113.841H384.467V112.783ZM385.095 117.598C385.095 117.046 385.226 116.555 385.487 116.123C385.748 115.691 386.11 115.354 386.575 115.113C387.039 114.868 387.562 114.745 388.146 114.745C388.723 114.745 389.241 114.868 389.702 115.113C390.166 115.354 390.529 115.693 390.79 116.128C391.054 116.56 391.186 117.05 391.186 117.598C391.186 118.149 391.054 118.64 390.79 119.072C390.529 119.504 390.166 119.841 389.702 120.082C389.241 120.324 388.723 120.445 388.146 120.445C387.562 120.445 387.039 120.324 386.575 120.082C386.11 119.841 385.748 119.504 385.487 119.072C385.226 118.64 385.095 118.149 385.095 117.598ZM386.338 117.598C386.334 117.946 386.41 118.253 386.565 118.521C386.72 118.788 386.934 118.996 387.208 119.145C387.485 119.29 387.798 119.362 388.146 119.362C388.487 119.362 388.793 119.29 389.064 119.145C389.338 118.996 389.552 118.788 389.707 118.521C389.865 118.253 389.946 117.946 389.949 117.598C389.946 117.253 389.865 116.945 389.707 116.674C389.552 116.403 389.338 116.194 389.064 116.046C388.793 115.894 388.487 115.819 388.146 115.819C387.798 115.819 387.485 115.894 387.208 116.046C386.934 116.194 386.72 116.403 386.565 116.674C386.41 116.945 386.334 117.253 386.338 117.598ZM406.544 113.242C406.541 113.944 406.531 114.547 406.515 115.05C406.499 115.549 406.457 116.133 406.39 116.8C406.325 117.467 406.22 118.189 406.075 118.966L404.77 118.821C404.912 118.105 405.017 117.43 405.084 116.795C405.155 116.157 405.199 115.59 405.215 115.093C405.234 114.597 405.246 114.015 405.249 113.348V113.242V113.097H397.809V112.043H406.544V113.242ZM396.634 120.387H400.879V116.065H402.164V120.387H407.801V121.46H396.634V120.387Z" fill="white"/>
<g clip-path="url(#clip0_1266_20230)">
<path d="M515.885 44.625H550.619L542.932 36.9387L544.885 35L555.885 46L544.885 57L542.946 55.0613L550.619 47.375H515.885V44.625Z" fill="white"/>
</g>
<path d="M664.449 0.437683L651.188 58.0105L636.871 0.437683H620.227L605.064 58.3427L591.924 0.437683H575.885L595.972 75.0165H613.491L628.141 21.9142L642.127 75.0165H659.737L680.579 0.437683H664.449Z" fill="white"/>
<path d="M779.12 61.2405L764.168 15.9313H748.189L769.938 75.0144H788.061L809.931 15.9313H794.042L779.12 61.2405Z" fill="white"/>
<path d="M871.148 44.1755C871.148 38.4061 869.91 33.3013 867.463 28.861C865.016 24.4207 861.573 20.9772 857.133 18.5607C852.692 16.1442 847.648 14.936 842.03 14.936C836.411 14.936 831.035 16.1744 826.564 18.6815C822.094 21.1584 818.59 24.7227 816.113 29.3443C813.636 33.9658 812.367 39.3425 812.367 45.4441C812.367 51.5457 813.636 56.8318 816.143 61.4533C818.68 66.0749 822.184 69.6392 826.715 72.1765C831.216 74.7138 836.321 75.9523 842.03 75.9523C849.068 75.9523 855.018 74.1097 859.851 70.4548C864.684 66.7998 867.946 62.1179 869.668 56.4391H853.568C851.212 61.2117 847.285 63.598 841.727 63.598C837.891 63.598 834.659 62.3897 832.031 59.9732C829.403 57.5568 827.893 54.2039 827.561 49.9448H870.755C871.027 48.2231 871.178 46.3201 871.178 44.1755H871.148ZM827.621 39.9164C828.195 35.9292 829.736 32.818 832.273 30.5827C834.81 28.3475 837.891 27.2298 841.607 27.2298C845.503 27.2298 848.826 28.3777 851.514 30.7035C854.203 33.0294 855.592 36.0802 855.683 39.9164H827.621Z" fill="white"/>
<path d="M725.333 24.331C723.339 21.6426 720.681 19.3772 717.389 17.6252C714.096 15.8431 710.23 14.9671 705.82 14.9671C700.775 14.9671 696.214 16.2056 692.106 18.7127C688.028 21.1896 684.796 24.7539 682.41 29.3754C680.024 33.9969 678.846 39.283 678.846 45.2638C678.846 51.2446 680.024 56.6515 682.41 61.3032C684.796 65.955 688.028 69.5797 692.106 72.117C696.184 74.6845 700.715 75.9532 705.699 75.9532C710.109 75.9532 714.006 75.047 717.389 73.2346C720.772 71.4223 723.43 69.1266 725.333 66.3476V74.9866H740.375V15.9337H725.333V24.3612V24.331ZM723.188 54.7787C721.768 57.3764 719.835 59.37 717.419 60.7595C715.002 62.149 712.405 62.8437 709.626 62.8437C706.847 62.8437 704.37 62.149 702.014 60.6991C699.627 59.2794 697.724 57.2254 696.244 54.5673C694.795 51.9091 694.07 48.7979 694.07 45.2336C694.07 41.6693 694.795 38.6185 696.244 36.0207C697.694 33.423 699.597 31.4596 701.953 30.1003C704.309 28.7411 706.847 28.0765 709.626 28.0765C712.405 28.0765 715.002 28.7713 717.419 30.1608C719.835 31.5502 721.768 33.5438 723.188 36.1416C724.608 38.7393 725.333 41.8505 725.333 45.4752C725.333 49.1 724.608 52.2112 723.188 54.8089V54.7787Z" fill="white"/>
<rect x="636.031" y="95.9531" width="175" height="41" rx="20.5" fill="black" fill-opacity="0.4"/>
<rect x="636.531" y="96.4531" width="174" height="40" rx="20" stroke="white" stroke-opacity="0.5"/>
<path d="M666.275 112.56C666.275 113.092 666.269 113.553 666.256 113.943C666.246 114.329 666.217 114.769 666.169 115.262C666.12 115.752 666.043 116.276 665.937 116.834H667.672V117.892H656.486V116.834H664.622C664.754 116.186 664.849 115.543 664.907 114.905L657.738 115.224L657.583 114.146L664.965 113.938C664.978 113.612 664.984 113.153 664.984 112.56V112.541H657.888V111.487H666.275V112.56ZM657.863 119.014H659.159V121.798H666.512V122.862H657.863V119.014ZM679.018 113.184H677.751V118.893C678.422 118.845 679.015 118.788 679.53 118.724L679.598 119.671C678.46 119.861 677.269 119.987 676.025 120.048C674.785 120.11 673.442 120.143 671.998 120.15L671.844 119.062C672.521 119.062 673.043 119.061 673.41 119.057V113.184H672.148V112.12H679.018V113.184ZM674.672 119.033C675.358 119.017 675.969 118.996 676.504 118.97V113.184H674.672V119.033ZM680.246 110.863H681.546V115.693H683.509V116.766H681.546V123.113H680.246V110.863ZM694.023 117.559H690.32V120.541H695.313V121.615H684.103V120.541H689.034V117.559H685.495V111.816H693.916V112.865H686.791V116.519H694.023V117.559ZM707.394 117.481H696.183V116.486H707.394V117.481ZM697.513 118.337H706.016V121.039H698.823V122.05H706.398V122.968H697.527V120.174H704.73V119.275H697.513V118.337ZM697.59 111.182H705.982V113.832H698.91V114.765H706.195V115.678H697.624V112.976H704.687V112.096H697.59V111.182ZM717.927 117.665H712.189V111.941H717.927V117.665ZM716.656 116.631V112.99H713.46V116.631H716.656ZM713.581 118.966H714.872V121.798H721.867V122.862H713.581V118.966ZM720.045 110.858H721.345V114.523H723.119V115.606H721.345V119.826H720.045V110.858ZM735.001 116.925H723.82V115.886H735.001V116.925ZM725.149 117.887H733.57V120.856H726.445V121.953H733.923V122.983H725.173V119.899H732.294V118.888H725.149V117.887ZM725.275 111.226H733.551V112.265H726.57V113.948H733.667V114.992H725.275V111.226ZM739.24 111.782C739.792 111.782 740.286 111.932 740.725 112.231C741.166 112.531 741.524 112.958 741.798 113.512C742.075 114.064 742.246 114.711 742.31 115.456H744.848V110.863H746.134V123.137H744.848V116.515H742.32C742.275 117.301 742.117 117.986 741.846 118.569C741.575 119.152 741.214 119.602 740.763 119.918C740.315 120.23 739.808 120.387 739.24 120.387C738.631 120.387 738.091 120.211 737.621 119.86C737.15 119.505 736.783 119.004 736.519 118.356C736.258 117.705 736.129 116.946 736.132 116.079C736.129 115.219 736.258 114.465 736.519 113.817C736.783 113.166 737.15 112.665 737.621 112.314C738.091 111.959 738.631 111.782 739.24 111.782ZM737.37 116.079C737.37 116.718 737.447 117.274 737.602 117.747C737.76 118.221 737.979 118.585 738.259 118.84C738.543 119.094 738.87 119.222 739.24 119.222C739.608 119.222 739.932 119.094 740.212 118.84C740.496 118.585 740.715 118.221 740.87 117.747C741.027 117.274 741.106 116.718 741.106 116.079C741.106 115.448 741.027 114.897 740.87 114.426C740.715 113.952 740.496 113.588 740.212 113.334C739.932 113.076 739.608 112.945 739.24 112.942C738.87 112.945 738.543 113.074 738.259 113.329C737.979 113.583 737.76 113.948 737.602 114.421C737.447 114.892 737.37 115.445 737.37 116.079ZM761.927 123.113H760.67V116.843H759.109V122.485H757.891V111.115H759.109V115.765H760.67V110.863H761.927V123.113ZM752.007 112.309H753.308V118.859C753.933 118.85 754.552 118.816 755.164 118.758C755.78 118.7 756.411 118.608 757.059 118.482L757.204 119.613C756.415 119.755 755.664 119.855 754.951 119.913C754.242 119.971 753.525 120 752.8 120H752.007V112.309ZM773.452 115.49H765.011V111.308H766.297V114.45H773.452V115.49ZM763.517 117.032H774.728V118.071H763.517V117.032ZM764.919 119.236H766.21V121.765H773.529V122.823H764.919V119.236ZM789.264 119.111H787.968V115.325H785.455V114.247H787.968V110.873H789.264V119.111ZM779.233 117.37C780.667 116.938 781.789 116.339 782.598 115.572C783.406 114.802 783.872 113.902 783.995 112.874H779.857V111.825H785.387C785.384 113.414 784.903 114.765 783.946 115.876C782.992 116.985 781.61 117.826 779.799 118.4L779.233 117.37ZM780.524 122.04C781.291 121.918 781.982 121.69 782.598 121.358C783.213 121.027 783.698 120.622 784.053 120.145C784.407 119.665 784.584 119.152 784.584 118.608V118.091H785.875V118.608C785.875 119.149 786.049 119.655 786.397 120.126C786.745 120.596 787.226 120.998 787.838 121.329C788.453 121.658 789.145 121.887 789.912 122.016L789.375 123.05C788.434 122.88 787.598 122.567 786.866 122.113C786.138 121.661 785.592 121.104 785.227 120.44C784.857 121.104 784.304 121.663 783.569 122.117C782.834 122.575 781.992 122.894 781.041 123.075L780.524 122.04Z" fill="white"/>
<defs>
<clipPath id="clip0_1266_20230">
<rect width="40" height="22" fill="white" transform="matrix(-1 0 0 1 555.885 35)"/>
</clipPath>
</defs>
</svg>
