<svg width="101" height="23" viewBox="0 0 101 23" fill="none" xmlns="http://www.w3.org/2000/svg">
<path d="M14.7151 18.3305C14.5181 18.4831 14.2708 18.5614 13.9752 18.5614C13.6796 18.5614 13.4302 18.4851 13.2332 18.3305C13.01 18.1497 12.8954 17.9108 12.8954 17.6176V13.0652C12.8954 12.0731 12.6902 11.3663 12.2821 10.9466C11.9583 10.6393 11.5079 10.4847 10.9268 10.4847C10.3778 10.4847 9.93945 10.6454 9.61772 10.9667C9.20751 11.4004 9.00442 12.0912 9.00442 13.0431V17.6176C9.00442 17.9108 8.88377 18.1497 8.64247 18.3305C8.44541 18.4831 8.19808 18.5614 7.90249 18.5614C7.6069 18.5614 7.35957 18.4851 7.16251 18.3305C6.93528 18.1497 6.82268 17.9108 6.82268 17.6176V13.0652C6.82268 12.0731 6.61958 11.3663 6.20938 10.9466C5.8977 10.6393 5.45331 10.4847 4.8762 10.4847C4.2991 10.4847 3.88889 10.6454 3.56515 10.9667C3.15494 11.3884 2.95185 12.0792 2.95185 13.0431V17.6176C2.95185 17.9108 2.8312 18.1497 2.59191 18.3305C2.39485 18.4972 2.14551 18.5815 1.84992 18.5815C1.54025 18.5815 1.28689 18.4972 1.08983 18.3305C0.864617 18.1497 0.75 17.9108 0.75 17.6176V13.0431C0.75 11.3783 1.21048 10.1494 2.12741 9.35013C2.8312 8.73363 3.71998 8.42839 4.79175 8.42839C5.34271 8.42839 5.8414 8.51274 6.29383 8.67941C6.7161 8.84609 7.2168 9.14128 7.79591 9.56098C8.41726 9.14128 8.92599 8.85412 9.32011 8.69949C9.79869 8.5047 10.3074 8.4043 10.8443 8.4043C12.0408 8.4043 12.9818 8.6774 13.6575 9.22361C14.6025 9.99273 15.0751 11.2719 15.0751 13.0632V17.6156C15.0751 17.9088 14.9544 18.1477 14.7151 18.3285" fill="black"/>
<path d="M28.0824 18.6014C27.9416 18.7841 27.7365 18.8966 27.4691 18.9388C27.2016 18.993 26.9623 18.9669 26.7512 18.8524C26.5099 18.756 26.3551 18.5954 26.2847 18.3685L26.2023 18.2018C26.0736 17.9347 25.963 17.766 25.8624 17.6998C25.6935 17.5873 25.4542 17.6074 25.1446 17.762C24.6781 17.9849 24.2196 18.1737 23.7692 18.3283C23.178 18.509 22.6692 18.6014 22.247 18.6014C20.7509 18.5733 19.5102 18.0853 18.5209 17.1335C17.5356 16.1816 17.043 14.9787 17.043 13.5249C17.043 12.071 17.5718 10.846 18.6295 9.85199C19.659 8.90214 20.8997 8.42822 22.3535 8.42822C23.8074 8.42822 24.9837 8.83989 25.971 9.66523C26.9442 10.4906 27.5153 11.581 27.6842 12.9365L28.2975 17.8243C28.3398 18.1315 28.2694 18.3906 28.0864 18.5994M24.6157 11.2577C24.0084 10.6974 23.2544 10.4183 22.3535 10.4183C21.4527 10.4183 20.7308 10.6994 20.1517 11.2577C19.5464 11.83 19.2428 12.5931 19.2428 13.5429C19.2428 14.4386 19.5464 15.1715 20.1517 15.7458C20.7449 16.2921 21.4788 16.5632 22.3535 16.5632C23.2846 16.5632 24.0527 16.2921 24.66 15.7458C25.2652 15.1876 25.5709 14.4506 25.5709 13.5429C25.5709 12.6353 25.2531 11.83 24.6177 11.2577" fill="black"/>
<path d="M32.1256 18.541C31.9004 18.7217 31.639 18.8141 31.3414 18.8141C31.0438 18.8141 30.7643 18.7217 30.537 18.541C30.3138 18.3583 30.1992 18.1073 30.1992 17.7839V4.56845C30.1992 4.2592 30.3118 4.01621 30.537 3.83347C30.7622 3.67885 31.0317 3.60254 31.3414 3.60254C31.651 3.60254 31.9004 3.67885 32.1256 3.83347C32.3669 4.01621 32.4855 4.2592 32.4855 4.56845V17.7839C32.4855 18.1073 32.3669 18.3583 32.1256 18.541Z" fill="black"/>
<path d="M37.1197 18.541C36.8945 18.7217 36.6331 18.8141 36.3355 18.8141C36.0379 18.8141 35.7564 18.7217 35.5312 18.541C35.306 18.3583 35.1934 18.1073 35.1934 17.7839V4.56845C35.1934 4.2592 35.308 4.01621 35.5312 3.83347C35.7564 3.67885 36.0258 3.60254 36.3355 3.60254C36.6452 3.60254 36.8925 3.67885 37.1197 3.83347C37.359 4.01621 37.4797 4.2592 37.4797 4.56845V17.7839C37.4797 18.1073 37.359 18.3583 37.1197 18.541Z" fill="black"/>
<path d="M46.7641 18.0796C46.1286 18.5696 45.3263 18.8146 44.3531 18.8146C43.3798 18.8146 42.5474 18.4833 41.8979 17.8266C41.3067 17.2262 41.0091 16.5334 41.0091 15.7502V11.3464C41.0091 11.1918 40.9809 11.0733 40.9246 10.9889C40.8683 10.8925 40.7557 10.8423 40.5868 10.8423H39.127C38.8314 10.8423 38.5901 10.7379 38.4071 10.5271C38.2523 10.3463 38.1738 10.1214 38.1738 9.85434C38.1738 9.58726 38.2523 9.34628 38.4071 9.16154C38.578 8.96876 38.8173 8.86835 39.127 8.86835H40.5446C40.6853 8.86835 40.7979 8.82819 40.8824 8.74385C40.9669 8.6595 41.0091 8.54102 41.0091 8.3864V4.67337C41.0091 4.36412 41.1217 4.12716 41.3489 3.95847C41.544 3.80586 41.7993 3.72754 42.109 3.72754C42.4187 3.72754 42.6519 3.81188 42.851 3.98257C43.0903 4.14724 43.2089 4.38018 43.2089 4.67538V8.40849C43.2089 8.55107 43.2431 8.66151 43.3155 8.74585C43.4 8.8302 43.5266 8.87036 43.6976 8.87036H46.0864C46.382 8.87036 46.6213 8.97076 46.8043 9.16354C46.9591 9.34628 47.0375 9.57722 47.0375 9.85635C47.0375 10.1355 46.9611 10.3483 46.8043 10.5291C46.6213 10.7379 46.382 10.8443 46.0864 10.8443H43.6976C43.5126 10.8443 43.3798 10.8946 43.2954 10.9909C43.2411 11.0753 43.2109 11.1938 43.2109 11.3484V15.5012C43.2109 15.8506 43.2954 16.1297 43.4663 16.3426C43.6332 16.5374 43.8805 16.6679 44.2063 16.7402C44.4878 16.7964 44.7774 16.7543 45.0709 16.6157C45.4228 16.435 45.6501 16.1619 45.7506 15.7964C45.7928 15.5173 45.9416 15.3144 46.193 15.1919C46.4182 15.0654 46.6736 15.0213 46.9551 15.0654C47.2366 15.1076 47.4618 15.2181 47.6307 15.4008C47.8298 15.5956 47.9142 15.8466 47.8861 16.1559C47.7715 16.9651 47.3995 17.6117 46.7641 18.0857" fill="black"/>
<path d="M59.733 18.6014C59.5902 18.7841 59.3891 18.8966 59.1177 18.9388C58.8502 18.993 58.611 18.9669 58.3978 18.8524C58.1585 18.756 58.0017 18.5954 57.9313 18.3685L57.8468 18.2018C57.7181 17.9347 57.6076 17.766 57.509 17.6998C57.3401 17.5873 57.1008 17.6074 56.7892 17.762C56.3247 17.9849 55.8662 18.1737 55.4137 18.3283C54.8206 18.509 54.3158 18.6014 53.8895 18.6014C52.3935 18.5733 51.1528 18.0853 50.1655 17.1335C49.1782 16.1816 48.6855 14.9787 48.6855 13.5249C48.6855 12.071 49.2144 10.846 50.2721 9.85199C51.3016 8.90214 52.5443 8.42822 53.9961 8.42822C55.4479 8.42822 56.6283 8.83989 57.6136 9.66523C58.5868 10.4906 59.1599 11.581 59.3288 12.9365L59.9421 17.8243C59.9843 18.1315 59.914 18.3906 59.731 18.5994M56.2603 11.2577C55.6551 10.6974 54.901 10.4183 53.9961 10.4183C53.0913 10.4183 52.3734 10.6994 51.7943 11.2577C51.189 11.83 50.8854 12.5931 50.8854 13.5429C50.8854 14.4386 51.189 15.1715 51.7943 15.7458C52.3895 16.2921 53.1214 16.5632 53.9961 16.5632C54.9291 16.5632 55.6973 16.2921 56.3025 15.7458C56.9098 15.1876 57.2134 14.4506 57.2134 13.5429C57.2134 12.6353 56.8957 11.83 56.2603 11.2577Z" fill="black"/>
<path d="M64.0931 6.18279C63.7674 6.49204 63.3853 6.64466 62.949 6.64466C62.4845 6.64466 62.0823 6.49004 61.7425 6.18279C61.4167 5.88961 61.2559 5.52613 61.2559 5.09037C61.2559 4.65461 61.4167 4.27306 61.7425 3.97987C62.0682 3.68669 62.4543 3.53809 62.9067 3.53809C63.3592 3.53809 63.7674 3.67866 64.0931 3.95779C64.4309 4.26704 64.5999 4.64457 64.5999 5.09037C64.5999 5.53617 64.4309 5.8876 64.0931 6.18279ZM63.7533 18.5408C63.5422 18.7075 63.2808 18.7918 62.9711 18.7918C62.6614 18.7918 62.398 18.7075 62.1869 18.5408C61.9476 18.3581 61.8289 18.1071 61.8289 17.7838V9.28736C61.8289 8.96606 61.9476 8.71304 62.1869 8.5323C62.398 8.36563 62.6614 8.28129 62.9711 8.28129C63.2808 8.28129 63.5422 8.36563 63.7533 8.5323C64.0087 8.71504 64.1333 8.96807 64.1333 9.28736V17.7838C64.1333 18.1071 64.0087 18.3581 63.7533 18.5408Z" fill="black"/>
<path d="M68.7564 18.541C68.5292 18.7217 68.2678 18.8141 67.9722 18.8141C67.6766 18.8141 67.393 18.7217 67.1698 18.541C66.9446 18.3583 66.832 18.1073 66.832 17.7839V4.56845C66.832 4.2592 66.9446 4.01621 67.1698 3.83347C67.3951 3.67885 67.6645 3.60254 67.9722 3.60254C68.2798 3.60254 68.5292 3.67885 68.7564 3.83347C68.9957 4.01621 69.1163 4.2592 69.1163 4.56845V17.7839C69.1163 18.1073 68.9957 18.3583 68.7564 18.541Z" fill="black"/>
<path d="M100.736 7.13287C100.652 6.15893 99.9138 5.37576 98.9366 5.39183C97.9573 5.40588 97.1751 6.21114 97.1932 7.1891C97.1992 7.56864 97.1731 7.94215 97.163 8.31767C97.1168 8.92413 97.0444 9.53259 96.9177 10.1491C95.8299 15.3662 91.2211 18.9507 86.0915 18.9507C85.3455 18.9507 84.5854 18.8744 83.8212 18.7158C79.8117 17.8824 77.0528 14.3421 77.0528 10.4121C77.0528 9.83782 77.1111 9.25547 77.2338 8.67512C77.8652 5.6328 80.5557 3.54636 83.5357 3.54636C83.9721 3.54636 84.4124 3.58853 84.8588 3.6809C87.127 4.1508 88.6854 6.15291 88.6854 8.37189C88.6854 8.6952 88.6532 9.02252 88.5829 9.35788C88.243 11.0005 86.7852 12.1271 85.1745 12.1271C84.9393 12.1271 84.698 12.105 84.4567 12.0528C83.3085 11.8178 82.5162 10.7957 82.5162 9.67517C82.5162 9.5105 82.5343 9.34383 82.5685 9.18317C82.7736 8.22731 82.1663 7.2875 81.2112 7.08267C80.25 6.87583 79.309 7.4843 79.1019 8.44217C79.0114 8.85786 78.9752 9.27354 78.9752 9.67316C78.9752 12.4504 80.9136 14.9224 83.7368 15.5168C84.2154 15.6172 84.698 15.6654 85.1765 15.6654C88.4441 15.6654 91.3618 13.3902 92.0535 10.0748C92.1722 9.50247 92.2325 8.93216 92.2325 8.36787C92.2325 4.49419 89.528 1.03619 85.5867 0.212862C84.899 0.0702845 84.2114 0 83.5357 0C78.8968 0 74.7504 3.2351 73.7672 7.94416C73.5902 8.76749 73.5098 9.59484 73.5098 10.4081C73.5098 15.9927 77.4168 20.987 83.0994 22.1778C84.1008 22.3866 85.1042 22.487 86.0935 22.487C92.876 22.487 97.9995 17.6414 100.125 10.9343C100.322 10.3218 100.463 9.67115 100.553 9.02855C100.704 8.33574 100.785 7.66302 100.736 7.13087" fill="#4492CF"/>
</svg>
